<?xml version="1.0" standalone="no"?>
<!DOCTYPE svg PUBLIC "-//W3C//DTD SVG 1.1//EN" "http://www.w3.org/Graphics/SVG/1.1/DTD/svg11.dtd">
<svg width="155mm" height="142mm" viewBox="-59 -63 155 142" xmlns="http://www.w3.org/2000/svg" version="1.1">
<title>OpenSCAD Model</title>
<path d="
M 75.296,77.1889 L 75.2962,77.1888 L 77.5503,76.6254 L 77.5675,76.6072 L 81.6979,72.2339 L 81.6982,72.2335
 L 94.0015,59.2066 L 94.0458,59.1597 L 94.0699,59.1342 L 94.7478,54.7018 L 94.7479,54.7016 L 95.3898,50.5047
 L 94.5172,49.4407 L 93.5956,48.317 L 89.1045,44.5485 L 82.1959,38.7515 L 82.171,38.7306 L 82.1324,38.6982
 L 82.1324,38.6982 L 82.0909,38.7422 L 81.3858,39.4888 L 80.3539,40.5813 L 80.9655,41.3271 L 82.1481,42.7691
 L 82.1899,42.8042 L 88.0853,47.751 L 91.6277,50.7235 L 90.8171,54.4376 L 90.5562,55.6333 L 87.0156,59.3821
 L 74.1733,72.9797 L 73.7986,73.0964 L 68.5303,74.736 L 64.0642,70.9885 L 59.4169,67.0889 L 59.0871,66.7246
 L 59.0871,66.7246 L 58.7198,66.3188 L 58.6804,66.3004 L 50.7773,62.6151 L 43.7449,59.3358 L 43.7449,59.3358
 L 43.7153,59.322 L 43.6614,59.2969 L 43.4834,59.6188 L 39.4223,58.9027 L 39.4219,58.9026 L 27.5807,56.8147
 L 11.6633,55.5431 L 11.6628,55.543 L 4.62775,54.981 L -6.45572,54.981 L -6.48688,54.8737 L -6.52944,54.7555
 L -6.57934,54.6402 L -6.63638,54.5283 L -6.70034,54.4201 L -6.77096,54.3162 L -6.84797,54.2169 L -6.93106,54.1227
 L -7.0199,54.0338 L -7.11415,53.9507 L -7.21342,53.8737 L -7.31734,53.8031 L -7.42549,53.7392 L -7.53744,53.6821
 L -7.65275,53.6322 L -7.77096,53.5897 L -7.89162,53.5546 L -8.01423,53.5272 L -8.13833,53.5075 L -8.26341,53.4957
 L -8.389,53.4918 L -8.51458,53.4957 L -8.63966,53.5075 L -8.76376,53.5272 L -8.88637,53.5546 L -9.00703,53.5897
 L -9.12524,53.6322 L -9.24055,53.6821 L -9.3525,53.7392 L -9.46065,53.8031 L -9.56457,53.8737 L -9.66384,53.9507
 L -9.75809,54.0338 L -9.84693,54.1227 L -9.93002,54.2169 L -10.007,54.3162 L -10.0777,54.4201 L -10.1416,54.5283
 L -10.1986,54.6402 L -10.2485,54.7555 L -10.2911,54.8737 L -10.3223,54.981 L -14.38,54.981 L -14.8717,51.5567
 L -15.6749,45.9625 L -15.8793,45.334 L -16.0958,44.6684 L -16.1369,44.6684 L -23.2074,44.6684 L -32.2778,44.6684
 L -33.4233,44.6684 L -52.8858,44.6684 L -54.8453,41.9645 L -56.3858,39.8387 L -56.3858,26.6408 L -56.3858,23.8102
 L -56.3858,18.6496 L -56.3858,-0.649562 L -56.3858,-5.81024 L -56.3858,-8.6408 L -56.3858,-23.1712 L -56.3858,-25.3425
 L -56.3858,-25.4058 L -56.3858,-28.6464 L -56.3858,-35.9443 L -56.3858,-40.8725 L -56.3613,-40.8536 L -56.2574,-40.7829
 L -56.1493,-40.719 L -56.0373,-40.6619 L -55.922,-40.612 L -55.8038,-40.5695 L -55.6832,-40.5344 L -55.5605,-40.507
 L -55.4364,-40.4874 L -55.3114,-40.4755 L -55.1858,-40.4716 L -55.0602,-40.4755 L -54.9351,-40.4874 L -54.811,-40.507
 L -54.6884,-40.5344 L -54.5677,-40.5695 L -54.4495,-40.612 L -54.3342,-40.6619 L -54.2223,-40.719 L -54.1141,-40.7829
 L -54.0102,-40.8536 L -53.9109,-40.9306 L -53.8167,-41.0137 L -53.7278,-41.1025 L -53.6448,-41.1968 L -53.5677,-41.296
 L -53.4971,-41.3999 L -53.4332,-41.5081 L -53.3761,-41.62 L -53.3262,-41.7354 L -53.2837,-41.8536 L -53.2486,-41.9742
 L -53.2212,-42.0968 L -53.2016,-42.2209 L -53.1897,-42.346 L -53.1858,-42.4716 L -53.1897,-42.5972 L -53.2016,-42.7223
 L -53.2212,-42.8464 L -53.2486,-42.969 L -53.2837,-43.0896 L -53.3262,-43.2078 L -53.3761,-43.3232 L -53.4332,-43.4351
 L -53.4971,-43.5433 L -53.5677,-43.6472 L -53.6448,-43.7464 L -53.7278,-43.8407 L -53.8167,-43.9295 L -53.9109,-44.0126
 L -54.0102,-44.0896 L -54.1141,-44.1603 L -54.2223,-44.2242 L -54.2814,-44.2543 L -53.9743,-44.6343 L -52.8858,-45.981
 L -35.0358,-45.981 L -34.5286,-45.981 L -33.3452,-45.981 L -28.4199,-45.981 L -15.3926,-45.981 L -15.3926,-45.981
 L -14.2994,-50.0428 L -12.9705,-54.981 L -8.1682,-54.981 L 4.62775,-54.981 L 5.40513,-55.8053 L 5.40518,-55.8053
 L 7.2873,-57.801 L 17.4499,-57.801 L 17.5347,-57.7705 L 17.6553,-57.7355 L 17.7779,-57.708 L 17.902,-57.6884
 L 18.0271,-57.6766 L 18.1527,-57.6726 L 18.2783,-57.6766 L 18.4034,-57.6884 L 18.5275,-57.708 L 18.6501,-57.7355
 L 18.7707,-57.7705 L 18.8554,-57.801 L 19.5252,-57.801 L 24.5291,-57.801 L 25.5789,-55.7073 L 25.943,-54.981
 L 25.943,-54.981 L 25.9663,-54.981 L 25.9663,-54.981 L 29.5917,-54.981 L 42.8283,-54.981 L 43.1562,-54.981
 L 44.3681,-54.981 L 47.3245,-54.981 L 47.3388,-54.981 L 60.7077,-54.981 L 61.8953,-55.9724 L 62.0978,-56.1415
 L 65.5609,-51.1942 L 68.634,-38.5996 L 69.0314,-36.9708 L 69.0074,-36.9716 L 68.8819,-36.9677 L 68.7568,-36.9558
 L 68.6327,-36.9362 L 68.5101,-36.9088 L 68.3894,-36.8737 L 68.2712,-36.8312 L 68.1559,-36.7813 L 68.0439,-36.7242
 L 67.9358,-36.6603 L 67.8319,-36.5896 L 67.7326,-36.5126 L 67.6383,-36.4295 L 67.5495,-36.3407 L 67.4664,-36.2464
 L 67.3894,-36.1472 L 67.3188,-36.0433 L 67.2548,-35.9351 L 67.1978,-35.8232 L 67.1479,-35.7079 L 67.1053,-35.5896
 L 67.0703,-35.469 L 67.0429,-35.3464 L 67.0232,-35.2223 L 67.0114,-35.0972 L 67.0074,-34.9716 L 67.0114,-34.846
 L 67.0232,-34.7209 L 67.0429,-34.5968 L 67.0703,-34.4742 L 67.1053,-34.3536 L 67.1479,-34.2354 L 67.1978,-34.12
 L 67.2548,-34.0081 L 67.3188,-33.8999 L 67.3894,-33.796 L 67.4664,-33.6968 L 67.5495,-33.6025 L 67.6383,-33.5137
 L 67.7326,-33.4306 L 67.8319,-33.3536 L 67.9358,-33.2829 L 68.0439,-33.219 L 68.1559,-33.1619 L 68.2712,-33.112
 L 68.3894,-33.0695 L 68.5101,-33.0344 L 68.6327,-33.007 L 68.7568,-32.9874 L 68.8819,-32.9755 L 69.0074,-32.9716
 L 69.133,-32.9755 L 69.2581,-32.9874 L 69.3822,-33.007 L 69.5048,-33.0344 L 69.6255,-33.0695 L 69.7437,-33.112
 L 69.7942,-33.1339 L 69.9686,-32.1379 L 70.1464,-31.1217 L 70.6546,-26.6347 L 70.7301,-25.9674 L 72.1098,-13.7834
 L 72.2998,-10.3693 L 72.3102,-10.1823 L 72.3802,-8.925 L 72.3802,8.925 L 72.3102,10.1823 L 72.2998,10.3693
 L 72.1098,13.7834 L 70.8946,24.5151 L 70.8037,24.5065 L 70.6781,24.5026 L 70.5526,24.5065 L 70.4275,24.5183
 L 70.3034,24.538 L 70.1808,24.5654 L 70.0601,24.6004 L 69.9419,24.643 L 69.8266,24.6929 L 69.7146,24.7499
 L 69.6065,24.8139 L 69.5026,24.8845 L 69.4033,24.9615 L 69.3091,25.0446 L 69.2202,25.1335 L 69.1371,25.2277
 L 69.0601,25.327 L 68.9895,25.4309 L 68.9255,25.539 L 68.8685,25.651 L 68.8186,25.7663 L 68.776,25.8845
 L 68.741,26.0052 L 68.7136,26.1278 L 68.6939,26.2519 L 68.6821,26.377 L 68.6781,26.5026 L 68.6821,26.6281
 L 68.6939,26.7532 L 68.7136,26.8773 L 68.741,26.9999 L 68.776,27.1206 L 68.8186,27.2388 L 68.8685,27.3541
 L 68.9255,27.4661 L 68.9895,27.5742 L 69.0601,27.6781 L 69.1371,27.7774 L 69.2202,27.8716 L 69.3091,27.9605
 L 69.4033,28.0436 L 69.5026,28.1206 L 69.6065,28.1912 L 69.7146,28.2552 L 69.8266,28.3122 L 69.9419,28.3621
 L 70.0601,28.4047 L 70.1808,28.4397 L 70.3034,28.4671 L 70.4275,28.4868 L 70.4446,28.4884 L 70.1464,31.1217
 L 70.1464,31.2217 L 72.7465,31.2217 L 73.2546,26.7347 L 74.7098,13.8834 L 74.7809,12.6069 L 74.7916,12.4137
 L 74.9802,9.025 L 74.9802,-9.025 L 74.7916,-12.4137 L 74.7809,-12.6069 L 74.7098,-13.8834 L 73.2546,-26.7347
 L 72.7465,-31.2217 L 72.5686,-32.2379 L 71.9539,-35.749 L 71.234,-38.6996 L 71.1584,-39.0093 L 68.1609,-51.2942
 L 63.4193,-57.2212 L 63.2998,-57.3706 L 62.242,-58.6929 L 62.0053,-59.6627 L 62.0053,-59.6627 L 61.9883,-59.7327
 L 61.9883,-59.7327 L 48.7774,-59.7327 L 48.7625,-59.7327 L 45.6498,-59.7327 L 44.2689,-59.7327 L 43.8658,-59.7327
 L 30.8662,-59.7327 L 27.0733,-59.7327 L 26.6104,-60.5175 L 25.4099,-62.5527 L 12.8274,-62.5527 L 12.804,-62.5527
 L 7.97496,-62.5527 L 7.08198,-61.6901 L 5.05544,-59.7327 L -7.18773,-59.7327 L -12.6219,-59.7327 L -13.1196,-58.0779
 L -13.3738,-57.2327 L -13.3738,-57.2327 L -14.6802,-52.6534 L -15.2281,-50.7327 L -27.7064,-50.7327 L -33.0784,-50.7327
 L -34.3971,-50.7327 L -35.0358,-50.7327 L -52.9858,-50.7327 L -55.1383,-48.4025 L -58.9858,-44.2375 L -58.9858,41.2294
 L -55.7537,45.1318 L -52.9858,48.4739 L -17.3486,48.4739 L -16.8003,53.1804 L -16.3282,57.2327 L -15.8019,58.9824
 L -15.5763,59.7327 L -9.23898,59.7327 L 5.05544,59.7327 L 21.0542,60.402 L 28.104,60.6969 L 28.104,60.6969
 L 33.4343,61.6368 L 33.4347,61.6369 L 44.9029,63.659 L 54.1357,67.9643 L 58.7712,70.1259 L 60.0927,71.5243
 L 60.9568,72.4387 L 60.9847,72.4622 L 60.9847,72.4622 L 61.018,72.4902 L 65.2195,76.0156 L 68.546,78.8068
 L 68.5855,78.84 L 68.5855,78.84 L 68.6095,78.8601 L 68.6095,78.8601 z
M 18.0459,-57.976 L 17.9396,-57.986 L 17.8341,-58.0027 L 17.7299,-58.026 L 17.6274,-58.0558 L 17.5269,-58.092
 L 17.4289,-58.1344 L 17.3337,-58.1829 L 17.2418,-58.2373 L 17.1535,-58.2973 L 17.0691,-58.3627 L 16.989,-58.4334
 L 16.9134,-58.5089 L 16.8428,-58.589 L 16.7774,-58.6734 L 16.7173,-58.7617 L 16.663,-58.8536 L 16.6145,-58.9488
 L 16.5721,-59.0468 L 16.5359,-59.1473 L 16.5061,-59.2498 L 16.4828,-59.3541 L 16.4661,-59.4596 L 16.456,-59.5659
 L 16.4527,-59.6726 L 16.456,-59.7794 L 16.4661,-59.8857 L 16.4828,-59.9912 L 16.5061,-60.0954 L 16.5359,-60.1979
 L 16.5721,-60.2984 L 16.6145,-60.3964 L 16.663,-60.4916 L 16.7173,-60.5835 L 16.7774,-60.6719 L 16.8428,-60.7562
 L 16.9134,-60.8363 L 16.989,-60.9119 L 17.0691,-60.9825 L 17.1535,-61.0479 L 17.2418,-61.108 L 17.3337,-61.1623
 L 17.4289,-61.2108 L 17.5269,-61.2532 L 17.6274,-61.2894 L 17.7299,-61.3192 L 17.8341,-61.3425 L 17.9396,-61.3592
 L 18.0459,-61.3693 L 18.1527,-61.3726 L 18.2594,-61.3693 L 18.3658,-61.3592 L 18.4712,-61.3425 L 18.5755,-61.3192
 L 18.678,-61.2894 L 18.7785,-61.2532 L 18.8765,-61.2108 L 18.9717,-61.1623 L 19.0636,-61.108 L 19.1519,-61.0479
 L 19.2363,-60.9825 L 19.3164,-60.9119 L 19.3919,-60.8363 L 19.4626,-60.7562 L 19.528,-60.6719 L 19.588,-60.5835
 L 19.6424,-60.4916 L 19.6909,-60.3964 L 19.7333,-60.2984 L 19.7695,-60.1979 L 19.7993,-60.0954 L 19.8226,-59.9912
 L 19.8393,-59.8857 L 19.8493,-59.7794 L 19.8527,-59.6726 L 19.8493,-59.5659 L 19.8393,-59.4596 L 19.8226,-59.3541
 L 19.7993,-59.2498 L 19.7695,-59.1473 L 19.7333,-59.0468 L 19.6909,-58.9488 L 19.6424,-58.8536 L 19.588,-58.7617
 L 19.528,-58.6734 L 19.4626,-58.589 L 19.3919,-58.5089 L 19.3164,-58.4334 L 19.2363,-58.3627 L 19.1519,-58.2973
 L 19.0636,-58.2373 L 18.9717,-58.1829 L 18.8765,-58.1344 L 18.7785,-58.092 L 18.678,-58.0558 L 18.5755,-58.026
 L 18.4712,-58.0027 L 18.3658,-57.986 L 18.2594,-57.976 L 18.1527,-57.9726 z
M -55.2925,-40.775 L -55.3988,-40.785 L -55.5043,-40.8017 L -55.6086,-40.825 L -55.7111,-40.8548 L -55.8116,-40.891
 L -55.9096,-40.9334 L -56.0048,-40.9819 L -56.0967,-41.0362 L -56.185,-41.0963 L -56.2694,-41.1617 L -56.3495,-41.2324
 L -56.425,-41.3079 L -56.4957,-41.388 L -56.5611,-41.4724 L -56.6211,-41.5607 L -56.6755,-41.6526 L -56.724,-41.7478
 L -56.7664,-41.8458 L -56.8026,-41.9463 L -56.8324,-42.0488 L -56.8557,-42.1531 L -56.8724,-42.2585 L -56.8824,-42.3649
 L -56.8858,-42.4716 L -56.8824,-42.5783 L -56.8724,-42.6847 L -56.8557,-42.7901 L -56.8324,-42.8944 L -56.8026,-42.9969
 L -56.7664,-43.0974 L -56.724,-43.1954 L -56.6755,-43.2906 L -56.6211,-43.3825 L -56.5611,-43.4708 L -56.4957,-43.5552
 L -56.425,-43.6353 L -56.3495,-43.7108 L -56.2694,-43.7815 L -56.185,-43.8469 L -56.0967,-43.907 L -56.0048,-43.9613
 L -55.9096,-44.0098 L -55.8116,-44.0522 L -55.7111,-44.0884 L -55.6086,-44.1182 L -55.5043,-44.1415 L -55.3988,-44.1582
 L -55.2925,-44.1682 L -55.1858,-44.1716 L -55.079,-44.1682 L -54.9727,-44.1582 L -54.8672,-44.1415 L -54.763,-44.1182
 L -54.6605,-44.0884 L -54.56,-44.0522 L -54.462,-44.0098 L -54.3668,-43.9613 L -54.2749,-43.907 L -54.1865,-43.8469
 L -54.1022,-43.7815 L -54.022,-43.7108 L -53.9465,-43.6353 L -53.8759,-43.5552 L -53.8105,-43.4708 L -53.7504,-43.3825
 L -53.6961,-43.2906 L -53.6476,-43.1954 L -53.6052,-43.0974 L -53.569,-42.9969 L -53.5392,-42.8944 L -53.5159,-42.7901
 L -53.4992,-42.6847 L -53.4891,-42.5783 L -53.4858,-42.4716 L -53.4891,-42.3649 L -53.4992,-42.2585 L -53.5159,-42.1531
 L -53.5392,-42.0488 L -53.569,-41.9463 L -53.6052,-41.8458 L -53.6476,-41.7478 L -53.6961,-41.6526 L -53.7504,-41.5607
 L -53.8105,-41.4724 L -53.8759,-41.388 L -53.9465,-41.3079 L -54.022,-41.2324 L -54.1022,-41.1617 L -54.1865,-41.0963
 L -54.2749,-41.0362 L -54.3668,-40.9819 L -54.462,-40.9334 L -54.56,-40.891 L -54.6605,-40.8548 L -54.763,-40.825
 L -54.8672,-40.8017 L -54.9727,-40.785 L -55.079,-40.775 L -55.1858,-40.7716 z
M 68.9007,-33.275 L 68.7944,-33.285 L 68.6889,-33.3017 L 68.5847,-33.325 L 68.4821,-33.3548 L 68.3816,-33.391
 L 68.2836,-33.4334 L 68.1885,-33.4819 L 68.0965,-33.5362 L 68.0082,-33.5963 L 67.9238,-33.6617 L 67.8437,-33.7324
 L 67.7682,-33.8079 L 67.6976,-33.888 L 67.6321,-33.9724 L 67.5721,-34.0607 L 67.5177,-34.1526 L 67.4692,-34.2478
 L 67.4268,-34.3458 L 67.3906,-34.4463 L 67.3608,-34.5488 L 67.3375,-34.6531 L 67.3208,-34.7585 L 67.3108,-34.8649
 L 67.3074,-34.9716 L 67.3108,-35.0783 L 67.3208,-35.1847 L 67.3375,-35.2901 L 67.3608,-35.3944 L 67.3906,-35.4969
 L 67.4268,-35.5974 L 67.4692,-35.6954 L 67.5177,-35.7906 L 67.5721,-35.8825 L 67.6321,-35.9708 L 67.6976,-36.0552
 L 67.7682,-36.1353 L 67.8437,-36.2108 L 67.9238,-36.2815 L 68.0082,-36.3469 L 68.0965,-36.407 L 68.1885,-36.4613
 L 68.2836,-36.5098 L 68.3816,-36.5522 L 68.4821,-36.5884 L 68.5847,-36.6182 L 68.6889,-36.6415 L 68.7944,-36.6582
 L 68.9007,-36.6682 L 69.0074,-36.6716 L 69.1142,-36.6682 L 69.2205,-36.6582 L 69.326,-36.6415 L 69.4302,-36.6182
 L 69.5328,-36.5884 L 69.6332,-36.5522 L 69.7313,-36.5098 L 69.8264,-36.4613 L 69.9183,-36.407 L 70.0067,-36.3469
 L 70.0911,-36.2815 L 70.1712,-36.2108 L 70.2467,-36.1353 L 70.3173,-36.0552 L 70.3828,-35.9708 L 70.4428,-35.8825
 L 70.4972,-35.7906 L 70.5456,-35.6954 L 70.5881,-35.5974 L 70.6242,-35.4969 L 70.654,-35.3944 L 70.6773,-35.2901
 L 70.694,-35.1847 L 70.7041,-35.0783 L 70.7074,-34.9716 L 70.7041,-34.8649 L 70.694,-34.7585 L 70.6773,-34.6531
 L 70.654,-34.5488 L 70.6242,-34.4463 L 70.5881,-34.3458 L 70.5456,-34.2478 L 70.4972,-34.1526 L 70.4428,-34.0607
 L 70.3828,-33.9724 L 70.3173,-33.888 L 70.2467,-33.8079 L 70.1712,-33.7324 L 70.0911,-33.6617 L 70.0067,-33.5963
 L 69.9183,-33.5362 L 69.8264,-33.4819 L 69.7313,-33.4334 L 69.6332,-33.391 L 69.5328,-33.3548 L 69.4302,-33.325
 L 69.326,-33.3017 L 69.2205,-33.285 L 69.1142,-33.275 L 69.0074,-33.2716 z
M 70.5714,28.1992 L 70.4651,28.1892 L 70.3596,28.1724 L 70.2554,28.1491 L 70.1528,28.1194 L 70.0523,28.0832
 L 69.9543,28.0408 L 69.8592,27.9923 L 69.7672,27.9379 L 69.6789,27.8779 L 69.5945,27.8124 L 69.5144,27.7418
 L 69.4389,27.6663 L 69.3683,27.5862 L 69.3028,27.5018 L 69.2428,27.4135 L 69.1884,27.3215 L 69.1399,27.2264
 L 69.0975,27.1284 L 69.0614,27.0279 L 69.0316,26.9253 L 69.0083,26.8211 L 68.9916,26.7156 L 68.9815,26.6093
 L 68.9781,26.5026 L 68.9815,26.3958 L 68.9916,26.2895 L 69.0083,26.184 L 69.0316,26.0798 L 69.0614,25.9772
 L 69.0975,25.8767 L 69.1399,25.7787 L 69.1884,25.6836 L 69.2428,25.5917 L 69.3028,25.5033 L 69.3683,25.4189
 L 69.4389,25.3388 L 69.5144,25.2633 L 69.5945,25.1927 L 69.6789,25.1272 L 69.7672,25.0672 L 69.8592,25.0128
 L 69.9543,24.9644 L 70.0523,24.9219 L 70.1528,24.8858 L 70.2554,24.856 L 70.3596,24.8327 L 70.4651,24.816
 L 70.5714,24.8059 L 70.6781,24.8026 L 70.7849,24.8059 L 70.8912,24.816 L 70.9967,24.8327 L 71.1009,24.856
 L 71.2035,24.8858 L 71.304,24.9219 L 71.402,24.9644 L 71.4971,25.0128 L 71.5891,25.0672 L 71.6774,25.1272
 L 71.7618,25.1927 L 71.8419,25.2633 L 71.9174,25.3388 L 71.988,25.4189 L 72.0535,25.5033 L 72.1135,25.5917
 L 72.1679,25.6836 L 72.2164,25.7787 L 72.2588,25.8767 L 72.2949,25.9772 L 72.3247,26.0798 L 72.348,26.184
 L 72.3647,26.2895 L 72.3748,26.3958 L 72.3781,26.5026 L 72.3748,26.6093 L 72.3647,26.7156 L 72.348,26.8211
 L 72.3247,26.9253 L 72.2949,27.0279 L 72.2588,27.1284 L 72.2164,27.2264 L 72.1679,27.3215 L 72.1135,27.4135
 L 72.0535,27.5018 L 71.988,27.5862 L 71.9174,27.6663 L 71.8419,27.7418 L 71.7618,27.8124 L 71.6774,27.8779
 L 71.5891,27.9379 L 71.4971,27.9923 L 71.402,28.0408 L 71.304,28.0832 L 71.2035,28.1194 L 71.1009,28.1491
 L 70.9967,28.1724 L 70.8912,28.1892 L 70.7849,28.1992 L 70.6781,28.2026 z
M -8.49574,57.1884 L -8.60206,57.1784 L -8.70754,57.1617 L -8.81177,57.1384 L -8.91432,57.1086 L -9.01481,57.0724
 L -9.11282,57.03 L -9.20798,56.9815 L -9.2999,56.9271 L -9.38823,56.8671 L -9.47262,56.8016 L -9.55273,56.731
 L -9.62824,56.6555 L -9.69887,56.5754 L -9.76432,56.491 L -9.82435,56.4027 L -9.87872,56.3108 L -9.9272,56.2156
 L -9.96962,56.1176 L -10.0058,56.0171 L -10.0356,55.9145 L -10.0589,55.8103 L -10.0756,55.7048 L -10.0856,55.5985
 L -10.089,55.4918 L -10.0856,55.385 L -10.0756,55.2787 L -10.0589,55.1732 L -10.0356,55.069 L -10.0058,54.9664
 L -9.96962,54.866 L -9.9272,54.768 L -9.87872,54.6728 L -9.82435,54.5809 L -9.76432,54.4925 L -9.69887,54.4082
 L -9.62824,54.328 L -9.55273,54.2525 L -9.47262,54.1819 L -9.38823,54.1164 L -9.2999,54.0564 L -9.20798,54.0021
 L -9.11282,53.9536 L -9.01481,53.9112 L -8.91432,53.875 L -8.81177,53.8452 L -8.70754,53.8219 L -8.60206,53.8052
 L -8.49574,53.7951 L -8.389,53.7918 L -8.28225,53.7951 L -8.17593,53.8052 L -8.07045,53.8219 L -7.96622,53.8452
 L -7.86367,53.875 L -7.76318,53.9112 L -7.66517,53.9536 L -7.57001,54.0021 L -7.47809,54.0564 L -7.38976,54.1164
 L -7.30538,54.1819 L -7.22527,54.2525 L -7.14975,54.328 L -7.07912,54.4082 L -7.01367,54.4925 L -6.95364,54.5809
 L -6.89927,54.6728 L -6.85079,54.768 L -6.80838,54.866 L -6.7722,54.9664 L -6.7424,55.069 L -6.71911,55.1732
 L -6.7024,55.2787 L -6.69235,55.385 L -6.689,55.4918 L -6.69235,55.5985 L -6.7024,55.7048 L -6.71911,55.8103
 L -6.7424,55.9145 L -6.7722,56.0171 L -6.80838,56.1176 L -6.85079,56.2156 L -6.89927,56.3108 L -6.95364,56.4027
 L -7.01367,56.491 L -7.07912,56.5754 L -7.14975,56.6555 L -7.22527,56.731 L -7.30538,56.8016 L -7.38976,56.8671
 L -7.47809,56.9271 L -7.57001,56.9815 L -7.66517,57.03 L -7.76318,57.0724 L -7.86367,57.1086 L -7.96622,57.1384
 L -8.07045,57.1617 L -8.17593,57.1784 L -8.28225,57.1884 L -8.389,57.1918 z
" stroke="black" fill="lightgray" stroke-width="0.5"/>
</svg>
