  0
SECTION
  2
HEADER
  9
$ACADVER
  1
AC1027
  9
$ACADMAINTVER
 70
105
  9
$DWGCODEPAGE
  3
ANSI_1252
  9
$LASTSAVEDBY
  1
ezdxf
  9
$REQUIREDVERSIONS
160
0
  9
$INSBASE
 10
0.0
 20
0.0
 30
0.0
  9
$EXTMIN
 10
1e+20
 20
1e+20
 30
1e+20
  9
$EXTMAX
 10
-1e+20
 20
-1e+20
 30
-1e+20
  9
$LIMMIN
 10
0.0
 20
0.0
  9
$LIMMAX
 10
420.0
 20
297.0
  9
$ORTHOMODE
 70
0
  9
$REGENMODE
 70
1
  9
$FILLMODE
 70
1
  9
$QTEXTMODE
 70
0
  9
$MIRRTEXT
 70
1
  9
$LTSCALE
 40
1.0
  9
$ATTMODE
 70
1
  9
$TEXTSIZE
 40
2.5
  9
$TRACEWID
 40
1.0
  9
$TEXTSTYLE
  7
Standard
  9
$CLAYER
  8
0
  9
$CELTYPE
  6
ByLayer
  9
$CECOLOR
 62
256
  9
$CELTSCALE
 40
1.0
  9
$DISPSILH
 70
0
  9
$DIMSCALE
 40
1.0
  9
$DIMASZ
 40
2.5
  9
$DIMEXO
 40
0.625
  9
$DIMDLI
 40
3.75
  9
$DIMRND
 40
0.0
  9
$DIMDLE
 40
0.0
  9
$DIMEXE
 40
1.25
  9
$DIMTP
 40
0.0
  9
$DIMTM
 40
0.0
  9
$DIMTXT
 40
2.5
  9
$DIMCEN
 40
2.5
  9
$DIMTSZ
 40
0.0
  9
$DIMTOL
 70
0
  9
$DIMLIM
 70
0
  9
$DIMTIH
 70
0
  9
$DIMTOH
 70
0
  9
$DIMSE1
 70
0
  9
$DIMSE2
 70
0
  9
$DIMTAD
 70
1
  9
$DIMZIN
 70
8
  9
$DIMBLK
  1

  9
$DIMASO
 70
1
  9
$DIMSHO
 70
1
  9
$DIMPOST
  1

  9
$DIMAPOST
  1

  9
$DIMALT
 70
0
  9
$DIMALTD
 70
3
  9
$DIMALTF
 40
0.03937007874
  9
$DIMLFAC
 40
1.0
  9
$DIMTOFL
 70
1
  9
$DIMTVP
 40
0.0
  9
$DIMTIX
 70
0
  9
$DIMSOXD
 70
0
  9
$DIMSAH
 70
0
  9
$DIMBLK1
  1

  9
$DIMBLK2
  1

  9
$DIMSTYLE
  2
ISO-25
  9
$DIMCLRD
 70
0
  9
$DIMCLRE
 70
0
  9
$DIMCLRT
 70
0
  9
$DIMTFAC
 40
1.0
  9
$DIMGAP
 40
0.625
  9
$DIMJUST
 70
0
  9
$DIMSD1
 70
0
  9
$DIMSD2
 70
0
  9
$DIMTOLJ
 70
0
  9
$DIMTZIN
 70
8
  9
$DIMALTZ
 70
0
  9
$DIMALTTZ
 70
0
  9
$DIMUPT
 70
0
  9
$DIMDEC
 70
2
  9
$DIMTDEC
 70
2
  9
$DIMALTU
 70
2
  9
$DIMALTTD
 70
3
  9
$DIMTXSTY
  7
Standard
  9
$DIMAUNIT
 70
0
  9
$DIMADEC
 70
0
  9
$DIMALTRND
 40
0.0
  9
$DIMAZIN
 70
0
  9
$DIMDSEP
 70
44
  9
$DIMATFIT
 70
3
  9
$DIMFRAC
 70
0
  9
$DIMLDRBLK
  1

  9
$DIMLUNIT
 70
2
  9
$DIMLWD
 70
-2
  9
$DIMLWE
 70
-2
  9
$DIMTMOVE
 70
0
  9
$DIMFXL
 40
1.0
  9
$DIMFXLON
 70
0
  9
$DIMJOGANG
 40
0.785398163397
  9
$DIMTFILL
 70
0
  9
$DIMTFILLCLR
 70
0
  9
$DIMARCSYM
 70
0
  9
$DIMLTYPE
  6

  9
$DIMLTEX1
  6

  9
$DIMLTEX2
  6

  9
$DIMTXTDIRECTION
 70
0
  9
$LUNITS
 70
2
  9
$LUPREC
 70
4
  9
$SKETCHINC
 40
1.0
  9
$FILLETRAD
 40
10.0
  9
$AUNITS
 70
0
  9
$AUPREC
 70
2
  9
$MENU
  1
.
  9
$ELEVATION
 40
0.0
  9
$PELEVATION
 40
0.0
  9
$THICKNESS
 40
0.0
  9
$LIMCHECK
 70
0
  9
$CHAMFERA
 40
0.0
  9
$CHAMFERB
 40
0.0
  9
$CHAMFERC
 40
0.0
  9
$CHAMFERD
 40
0.0
  9
$SKPOLY
 70
0
  9
$TDCREATE
 40
2459818.599479167
  9
$TDUCREATE
 40
2458532.153996898
  9
$TDUPDATE
 40
2459818.599479167
  9
$TDUUPDATE
 40
2458532.1544311
  9
$TDINDWG
 40
0.0
  9
$TDUSRTIMER
 40
0.0
  9
$USRTIMER
 70
1
  9
$ANGBASE
 50
0.0
  9
$ANGDIR
 70
0
  9
$PDMODE
 70
0
  9
$PDSIZE
 40
0.0
  9
$PLINEWID
 40
0.0
  9
$SPLFRAME
 70
0
  9
$SPLINETYPE
 70
6
  9
$SPLINESEGS
 70
8
  9
$HANDSEED
  5
131
  9
$SURFTAB1
 70
6
  9
$SURFTAB2
 70
6
  9
$SURFTYPE
 70
6
  9
$SURFU
 70
6
  9
$SURFV
 70
6
  9
$UCSBASE
  2

  9
$UCSNAME
  2

  9
$UCSORG
 10
0.0
 20
0.0
 30
0.0
  9
$UCSXDIR
 10
1.0
 20
0.0
 30
0.0
  9
$UCSYDIR
 10
0.0
 20
1.0
 30
0.0
  9
$UCSORTHOREF
  2

  9
$UCSORTHOVIEW
 70
0
  9
$UCSORGTOP
 10
0.0
 20
0.0
 30
0.0
  9
$UCSORGBOTTOM
 10
0.0
 20
0.0
 30
0.0
  9
$UCSORGLEFT
 10
0.0
 20
0.0
 30
0.0
  9
$UCSORGRIGHT
 10
0.0
 20
0.0
 30
0.0
  9
$UCSORGFRONT
 10
0.0
 20
0.0
 30
0.0
  9
$UCSORGBACK
 10
0.0
 20
0.0
 30
0.0
  9
$PUCSBASE
  2

  9
$PUCSNAME
  2

  9
$PUCSORG
 10
0.0
 20
0.0
 30
0.0
  9
$PUCSXDIR
 10
1.0
 20
0.0
 30
0.0
  9
$PUCSYDIR
 10
0.0
 20
1.0
 30
0.0
  9
$PUCSORTHOREF
  2

  9
$PUCSORTHOVIEW
 70
0
  9
$PUCSORGTOP
 10
0.0
 20
0.0
 30
0.0
  9
$PUCSORGBOTTOM
 10
0.0
 20
0.0
 30
0.0
  9
$PUCSORGLEFT
 10
0.0
 20
0.0
 30
0.0
  9
$PUCSORGRIGHT
 10
0.0
 20
0.0
 30
0.0
  9
$PUCSORGFRONT
 10
0.0
 20
0.0
 30
0.0
  9
$PUCSORGBACK
 10
0.0
 20
0.0
 30
0.0
  9
$USERI1
 70
0
  9
$USERI2
 70
0
  9
$USERI3
 70
0
  9
$USERI4
 70
0
  9
$USERI5
 70
0
  9
$USERR1
 40
0.0
  9
$USERR2
 40
0.0
  9
$USERR3
 40
0.0
  9
$USERR4
 40
0.0
  9
$USERR5
 40
0.0
  9
$WORLDVIEW
 70
1
  9
$SHADEDGE
 70
3
  9
$SHADEDIF
 70
70
  9
$TILEMODE
 70
1
  9
$MAXACTVP
 70
64
  9
$PINSBASE
 10
0.0
 20
0.0
 30
0.0
  9
$PLIMCHECK
 70
0
  9
$PEXTMIN
 10
1e+20
 20
1e+20
 30
1e+20
  9
$PEXTMAX
 10
-1e+20
 20
-1e+20
 30
-1e+20
  9
$PLIMMIN
 10
0.0
 20
0.0
  9
$PLIMMAX
 10
420.0
 20
297.0
  9
$UNITMODE
 70
0
  9
$VISRETAIN
 70
1
  9
$PLINEGEN
 70
0
  9
$PSLTSCALE
 70
1
  9
$TREEDEPTH
 70
3020
  9
$CMLSTYLE
  2
Standard
  9
$CMLJUST
 70
0
  9
$CMLSCALE
 40
20.0
  9
$PROXYGRAPHICS
 70
1
  9
$MEASUREMENT
 70
1
  9
$CELWEIGHT
370
-1
  9
$ENDCAPS
280
0
  9
$JOINSTYLE
280
0
  9
$LWDISPLAY
290
0
  9
$INSUNITS
 70
6
  9
$HYPERLINKBASE
  1

  9
$STYLESHEET
  1

  9
$XEDIT
290
1
  9
$CEPSNTYPE
380
0
  9
$PSTYLEMODE
290
1
  9
$FINGERPRINTGUID
  2
{884BBBBB-77E6-4260-8797-4944DBD102C4}
  9
$VERSIONGUID
  2
{6315E92D-8106-4177-9816-111134BCCA98}
  9
$EXTNAMES
290
1
  9
$PSVPSCALE
 40
0.0
  9
$OLESTARTUP
290
0
  9
$SORTENTS
280
127
  9
$INDEXCTL
280
0
  9
$HIDETEXT
280
1
  9
$XCLIPFRAME
280
0
  9
$HALOGAP
280
0
  9
$OBSCOLOR
 70
257
  9
$OBSLTYPE
280
0
  9
$INTERSECTIONDISPLAY
280
0
  9
$INTERSECTIONCOLOR
 70
257
  9
$DIMASSOC
280
2
  9
$PROJECTNAME
  1

  9
$CAMERADISPLAY
290
0
  9
$LENSLENGTH
 40
50.0
  9
$CAMERAHEIGHT
 40
0.0
  9
$STEPSPERSEC
 40
24.0
  9
$STEPSIZE
 40
100.0
  9
$3DDWFPREC
 40
2.0
  9
$PSOLWIDTH
 40
0.005
  9
$PSOLHEIGHT
 40
0.08
  9
$LOFTANG1
 40
1.570796326795
  9
$LOFTANG2
 40
1.570796326795
  9
$LOFTMAG1
 40
0.0
  9
$LOFTMAG2
 40
0.0
  9
$LOFTPARAM
 70
7
  9
$LOFTNORMALS
280
1
  9
$LATITUDE
 40
37.795
  9
$LONGITUDE
 40
-122.394
  9
$NORTHDIRECTION
 40
0.0
  9
$TIMEZONE
 70
-8000
  9
$LIGHTGLYPHDISPLAY
280
1
  9
$TILEMODELIGHTSYNCH
280
1
  9
$CMATERIAL
347
20
  9
$SOLIDHIST
280
0
  9
$SHOWHIST
280
1
  9
$DWFFRAME
280
2
  9
$DGNFRAME
280
2
  9
$REALWORLDSCALE
290
1
  9
$INTERFERECOLOR
 62
256
  9
$CSHADOW
280
0
  9
$SHADOWPLANELOCATION
 40
0.0
  0
ENDSEC
  0
SECTION
  2
CLASSES
  0
CLASS
  1
ACDBDICTIONARYWDFLT
  2
AcDbDictionaryWithDefault
  3
ObjectDBX Classes
 90
0
 91
0
280
0
281
0
  0
CLASS
  1
SUN
  2
AcDbSun
  3
SCENEOE
 90
1153
 91
0
280
0
281
0
  0
CLASS
  1
VISUALSTYLE
  2
AcDbVisualStyle
  3
ObjectDBX Classes
 90
4095
 91
0
280
0
281
0
  0
CLASS
  1
MATERIAL
  2
AcDbMaterial
  3
ObjectDBX Classes
 90
1153
 91
0
280
0
281
0
  0
CLASS
  1
SCALE
  2
AcDbScale
  3
ObjectDBX Classes
 90
1153
 91
0
280
0
281
0
  0
CLASS
  1
TABLESTYLE
  2
AcDbTableStyle
  3
ObjectDBX Classes
 90
4095
 91
0
280
0
281
0
  0
CLASS
  1
MLEADERSTYLE
  2
AcDbMLeaderStyle
  3
ACDB_MLEADERSTYLE_CLASS
 90
4095
 91
0
280
0
281
0
  0
CLASS
  1
DICTIONARYVAR
  2
AcDbDictionaryVar
  3
ObjectDBX Classes
 90
0
 91
0
280
0
281
0
  0
CLASS
  1
CELLSTYLEMAP
  2
AcDbCellStyleMap
  3
ObjectDBX Classes
 90
1152
 91
0
280
0
281
0
  0
CLASS
  1
MENTALRAYRENDERSETTINGS
  2
AcDbMentalRayRenderSettings
  3
SCENEOE
 90
1024
 91
0
280
0
281
0
  0
CLASS
  1
ACDBDETAILVIEWSTYLE
  2
AcDbDetailViewStyle
  3
ObjectDBX Classes
 90
1025
 91
0
280
0
281
0
  0
CLASS
  1
ACDBSECTIONVIEWSTYLE
  2
AcDbSectionViewStyle
  3
ObjectDBX Classes
 90
1025
 91
0
280
0
281
0
  0
CLASS
  1
RASTERVARIABLES
  2
AcDbRasterVariables
  3
ISM
 90
0
 91
0
280
0
281
0
  0
CLASS
  1
LAYOUT
  2
AcDbLayout
  3
ObjectDBX Classes
 90
0
 91
0
280
0
281
0
  0
CLASS
  1
ACDBPLACEHOLDER
  2
AcDbPlaceHolder
  3
ObjectDBX Classes
 90
0
 91
0
280
0
281
0
  0
ENDSEC
  0
SECTION
  2
TABLES
  0
TABLE
  2
VPORT
  5
8
330
0
100
AcDbSymbolTable
 70
1
  0
VPORT
  5
23
330
8
100
AcDbSymbolTableRecord
100
AcDbViewportTableRecord
  2
*Active
 70
0
 10
0.0
 20
0.0
 11
1.0
 21
1.0
 12
0.0
 22
0.0
 13
0.0
 23
0.0
 14
0.5
 24
0.5
 15
0.5
 25
0.5
 16
0.0
 26
0.0
 36
1.0
 17
0.0
 27
0.0
 37
0.0
 40
1000.0
 41
1.34
 42
50.0
 43
0.0
 44
0.0
 50
0.0
 51
0.0
 71
0
 72
1000
 73
1
 74
3
 75
0
 76
0
 77
0
 78
0
281
0
 65
0
146
0.0
  0
ENDTAB
  0
TABLE
  2
LTYPE
  5
2
330
0
100
AcDbSymbolTable
 70
3
  0
LTYPE
  5
24
330
2
100
AcDbSymbolTableRecord
100
AcDbLinetypeTableRecord
  2
ByBlock
 70
0
  3

 72
65
 73
0
 40
0.0
  0
LTYPE
  5
25
330
2
100
AcDbSymbolTableRecord
100
AcDbLinetypeTableRecord
  2
ByLayer
 70
0
  3

 72
65
 73
0
 40
0.0
  0
LTYPE
  5
26
330
2
100
AcDbSymbolTableRecord
100
AcDbLinetypeTableRecord
  2
Continuous
 70
0
  3

 72
65
 73
0
 40
0.0
  0
ENDTAB
  0
TABLE
  2
LAYER
  5
1
330
0
100
AcDbSymbolTable
 70
2
  0
LAYER
  5
27
330
1
100
AcDbSymbolTableRecord
100
AcDbLayerTableRecord
  2
0
 70
0
 62
7
  6
Continuous
370
-3
390
13
347
21
  0
LAYER
  5
28
330
1
100
AcDbSymbolTableRecord
100
AcDbLayerTableRecord
  2
Defpoints
 70
0
 62
7
  6
Continuous
290
0
370
-3
390
13
347
21
  0
ENDTAB
  0
TABLE
  2
STYLE
  5
5
330
0
100
AcDbSymbolTable
 70
1
  0
STYLE
  5
29
330
5
100
AcDbSymbolTableRecord
100
AcDbTextStyleTableRecord
  2
Standard
 70
0
 40
0.0
 41
1.0
 50
0.0
 71
0
 42
2.5
  3
txt
  4

  0
ENDTAB
  0
TABLE
  2
VIEW
  5
7
330
0
100
AcDbSymbolTable
 70
0
  0
ENDTAB
  0
TABLE
  2
UCS
  5
6
330
0
100
AcDbSymbolTable
 70
0
  0
ENDTAB
  0
TABLE
  2
APPID
  5
3
330
0
100
AcDbSymbolTable
 70
3
  0
APPID
  5
2A
330
3
100
AcDbSymbolTableRecord
100
AcDbRegAppTableRecord
  2
ACAD
 70
0
  0
APPID
  5
12E
330
3
100
AcDbSymbolTableRecord
100
AcDbRegAppTableRecord
  2
HATCHBACKGROUNDCOLOR
 70
0
  0
APPID
  5
12F
330
3
100
AcDbSymbolTableRecord
100
AcDbRegAppTableRecord
  2
EZDXF
 70
0
  0
ENDTAB
  0
TABLE
  2
DIMSTYLE
  5
4
330
0
100
AcDbSymbolTable
 70
1
100
AcDbDimStyleTable
  0
DIMSTYLE
105
2B
330
4
100
AcDbSymbolTableRecord
100
AcDbDimStyleTableRecord
  2
Standard
 70
0
 40
1.0
 41
2.5
 42
0.625
 43
3.75
 44
1.25
 45
0.0
 46
0.0
 47
0.0
 48
0.0
 49
2.5
140
2.5
141
2.5
142
0.0
143
0.03937007874
144
1.0
145
0.0
146
1.0
147
0.625
148
0.0
 69
0
 70
0
 71
0
 72
0
 73
0
 74
0
 75
0
 76
0
 77
1
 78
8
 79
3
170
0
171
3
172
1
173
0
174
0
175
0
176
0
177
0
178
0
179
2
271
2
272
2
273
2
274
3
275
0
276
0
277
2
278
44
279
0
280
0
281
0
282
0
283
0
284
8
285
0
286
0
288
0
289
3
290
0
371
-2
372
-2
  0
ENDTAB
  0
TABLE
  2
BLOCK_RECORD
  5
9
330
0
100
AcDbSymbolTable
 70
2
  0
BLOCK_RECORD
  5
17
330
9
100
AcDbSymbolTableRecord
100
AcDbBlockTableRecord
  2
*Model_Space
340
1A
 70
0
280
1
281
0
  0
BLOCK_RECORD
  5
1B
330
9
100
AcDbSymbolTableRecord
100
AcDbBlockTableRecord
  2
*Paper_Space
340
1E
 70
0
280
1
281
0
  0
ENDTAB
  0
ENDSEC
  0
SECTION
  2
BLOCKS
  0
BLOCK
  5
18
330
17
100
AcDbEntity
  8
0
100
AcDbBlockBegin
  2
*Model_Space
 70
0
 10
0.0
 20
0.0
 30
0.0
  3
*Model_Space
  1

  0
ENDBLK
  5
19
330
17
100
AcDbEntity
  8
0
100
AcDbBlockEnd
  0
BLOCK
  5
1C
330
1B
100
AcDbEntity
  8
0
100
AcDbBlockBegin
  2
*Paper_Space
 70
0
 10
0.0
 20
0.0
 30
0.0
  3
*Paper_Space
  1

  0
ENDBLK
  5
1D
330
1B
100
AcDbEntity
  8
0
100
AcDbBlockEnd
  0
ENDSEC
  0
SECTION
  2
ENTITIES
  0
LINE
  5
2F
330
17
100
AcDbEntity
  8
0
100
AcDbLine
 10
-44.71311242134169
 20
-61.31202844734374
 30
-5.0
 11
-27.780840303698973
 21
-58.326412028305676
 31
-5.0
  0
LINE
  5
30
330
17
100
AcDbEntity
  8
0
100
AcDbLine
 10
-44.71470418613348
 20
-61.3054949128438
 30
-5.0
 11
-44.713112421341656
 21
-61.312028447343735
 31
-5.0
  0
LINE
  5
31
330
17
100
AcDbEntity
  8
0
100
AcDbLine
 10
-44.71470418613349
 20
-61.3054949128438
 30
-5.0
 11
-58.790635681844726
 21
-67.8692095649591
 31
-5.0
  0
LINE
  5
32
330
17
100
AcDbEntity
  8
0
100
AcDbLine
 10
-60.531026828125775
 20
-69.72054682183315
 30
-5.0
 11
-58.79063568184472
 21
-67.8692095649591
 31
-5.0
  0
LINE
  5
33
330
17
100
AcDbEntity
  8
0
100
AcDbLine
 10
-60.53102682812577
 20
-69.72054682183315
 30
-5.0
 11
-69.04109381106696
 21
-76.86134088851333
 31
-5.0
  0
LINE
  5
34
330
17
100
AcDbEntity
  8
0
100
AcDbLine
 10
-76.345230690399
 20
-74.55157459453605
 30
-5.0
 11
-69.04109381106709
 21
-76.86134088851317
 31
-5.0
  0
LINE
  5
35
330
17
100
AcDbEntity
  8
0
100
AcDbLine
 10
-76.34523069039903
 20
-74.55157459453605
 30
-5.0
 11
-91.59938637976556
 21
-58.40021927240548
 31
-5.0
  0
LINE
  5
36
330
17
100
AcDbEntity
  8
0
100
AcDbLine
 10
-93.18780662876355
 20
-51.29439726200128
 30
-5.0
 11
-91.59938637976535
 21
-58.400219272405295
 31
-5.0
  0
LINE
  5
37
330
17
100
AcDbEntity
  8
0
100
AcDbLine
 10
-93.18780662876355
 20
-51.29439726200129
 30
-5.0
 11
-91.89601726745133
 21
-49.719229300953195
 31
-5.0
  0
LINE
  5
38
330
17
100
AcDbEntity
  8
0
100
AcDbLine
 10
-81.44895742645241
 20
-40.95310524148413
 30
-5.0
 11
-91.89601726745062
 21
-49.719229300954034
 31
-5.0
  0
LINE
  5
39
330
17
100
AcDbEntity
  8
0
100
AcDbLine
 10
-71.32580427304917
 20
-31.306896330112515
 30
-5.0
 11
-81.44895742645247
 21
-40.95310524148407
 31
-5.0
  0
LINE
  5
3A
330
17
100
AcDbEntity
  8
0
100
AcDbLine
 10
-71.32580427304917
 20
-31.30689633011253
 30
-5.0
 11
-73.2625734879037
 21
-14.203676064681442
 31
-5.0
  0
LINE
  5
3B
330
17
100
AcDbEntity
  8
0
100
AcDbLine
 10
-73.55488097461294
 20
-8.950000000000001
 30
-5.0000000000000036
 11
-73.26257348790368
 21
-14.203676064681439
 31
-5.0000000000000036
  0
LINE
  5
3C
330
17
100
AcDbEntity
  8
0
100
AcDbLine
 10
-73.55488097461293
 20
8.95
 30
-5.0
 11
-73.55488097461293
 21
-8.950000000000003
 31
-5.0
  0
LINE
  5
3D
330
17
100
AcDbEntity
  8
0
100
AcDbLine
 10
-73.55488097461293
 20
8.95
 30
-5.0000000000000036
 11
-73.26257348790367
 21
14.203676064681439
 31
-5.0000000000000036
  0
LINE
  5
3E
330
17
100
AcDbEntity
  8
0
100
AcDbLine
 10
-71.3155831755022
 20
31.39715679137915
 30
-5.0000000000000036
 11
-73.26257348790367
 21
14.203676064681439
 31
-5.0000000000000036
  0
LINE
  5
3F
330
17
100
AcDbEntity
  8
0
100
AcDbLine
 10
-71.31558317550223
 20
31.39715679137914
 30
-5.0
 11
-70.4585809540733
 21
36.2928041157329
 31
-5.0
  0
LINE
  5
40
330
17
100
AcDbEntity
  8
0
100
AcDbLine
 10
-66.69728427864167
 20
51.7080602392526
 30
-5.0
 11
-70.4585809540733
 21
36.2928041157329
 31
-5.0
  0
LINE
  5
41
330
17
100
AcDbEntity
  8
0
100
AcDbLine
 10
-66.69728427864165
 20
51.70806023925259
 30
-5.0
 11
-62.197284278641646
 21
58.20806023925259
 31
-5.0
  0
LINE
  5
42
330
17
100
AcDbEntity
  8
0
100
AcDbLine
 10
-62.19728427864165
 20
58.208060239252596
 30
-5.0
 11
-61.723521910124155
 21
58.58052712492602
 31
-5.0
  0
LINE
  5
43
330
17
100
AcDbEntity
  8
0
100
AcDbLine
 10
-61.72352191012415
 20
58.58052712492601
 30
-5.0
 11
-26.965602911808347
 21
58.58052712492601
 31
-5.0
  0
LINE
  5
44
330
17
100
AcDbEntity
  8
0
100
AcDbLine
 10
-26.965602911808354
 20
58.58052712492602
 30
-5.0
 11
-25.178399228366036
 21
61.40052712492602
 31
-5.0
  0
LINE
  5
45
330
17
100
AcDbEntity
  8
0
100
AcDbLine
 10
-25.17839922836603
 20
61.40052712492602
 30
-5.0
 11
-7.888325913316088
 21
61.40052712492602
 31
-5.0
  0
LINE
  5
46
330
17
100
AcDbEntity
  8
0
100
AcDbLine
 10
-7.8883259133160895
 20
61.40052712492602
 30
-5.0
 11
-5.531468638936351
 21
58.58052712492602
 31
-5.0
  0
LINE
  5
47
330
17
100
AcDbEntity
  8
0
100
AcDbLine
 10
-5.531468638936349
 20
58.58052712492601
 30
-5.0
 11
11.9981098203519
 21
58.58052712492601
 31
-5.0
  0
LINE
  5
48
330
17
100
AcDbEntity
  8
0
100
AcDbLine
 10
14.733055388604988
 20
49.58052712492602
 30
-5.000000000000001
 11
11.998109820351894
 21
58.58052712492602
 31
-5.000000000000001
  0
LINE
  5
49
330
17
100
AcDbEntity
  8
0
100
AcDbLine
 10
14.733055388604988
 20
49.58052712492602
 30
-5.0
 11
52.32093850075886
 21
49.58052712492602
 31
-5.0
  0
LINE
  5
4A
330
17
100
AcDbEntity
  8
0
100
AcDbLine
 10
56.82093850075884
 20
43.95136056296656
 30
-5.0
 11
52.32093850075884
 21
49.58052712492601
 31
-5.0
  0
LINE
  5
4B
330
17
100
AcDbEntity
  8
0
100
AcDbLine
 10
56.82093850075883
 20
43.95136056296657
 30
-5.0
 11
56.82093850075887
 21
-41.04250016431761
 31
-5.0
  0
LINE
  5
4C
330
17
100
AcDbEntity
  8
0
100
AcDbLine
 10
52.32093850075887
 20
-47.32101840721283
 30
-5.0
 11
56.82093850075887
 21
-41.0425001643176
 31
-5.0
  0
LINE
  5
4D
330
17
100
AcDbEntity
  8
0
100
AcDbLine
 10
16.039226056116824
 20
-47.321018407212826
 30
-5.0
 11
52.320938500758864
 21
-47.321018407212826
 31
-5.0
  0
LINE
  5
4E
330
17
100
AcDbEntity
  8
0
100
AcDbLine
 10
14.755308447282276
 20
-56.78052850377191
 30
-5.0
 11
16.039226056116828
 21
-47.321018407212826
 31
-5.0
  0
LINE
  5
4F
330
17
100
AcDbEntity
  8
0
100
AcDbLine
 10
14.755308447282276
 20
-56.780528503771905
 30
-5.0
 11
14.213927322228221
 21
-58.58052712492602
 31
-5.0
  0
LINE
  5
50
330
17
100
AcDbEntity
  8
0
100
AcDbLine
 10
-5.629949416797519
 20
-58.58052712492603
 30
-5.0
 11
14.213927322228217
 21
-58.58052712492603
 31
-5.0
  0
LINE
  5
51
330
17
100
AcDbEntity
  8
0
100
AcDbLine
 10
-27.780840303698977
 20
-58.326412028305676
 30
-5.0
 11
-5.629949416797519
 21
-58.58052712492602
 31
-5.0
  0
CIRCLE
  5
52
330
17
100
AcDbEntity
  8
0
100
AcDbCircle
 10
-67.73907833170294
 20
-22.75041642803029
 30
-5.0
 40
3.0
  0
CIRCLE
  5
53
330
17
100
AcDbEntity
  8
0
100
AcDbCircle
 10
7.628573724019036
 20
-53.53962917572293
 30
-5.0
 40
3.0
  0
CIRCLE
  5
54
330
17
100
AcDbEntity
  8
0
100
AcDbCircle
 10
52.02093850075885
 20
38.45043064544177
 30
-5.0
 40
3.0
  0
LINE
  5
55
330
17
100
AcDbEntity
  8
0
100
AcDbLine
 10
-44.71311242134169
 20
-61.31202844734374
 30
-5.0
 11
-44.71311242134169
 21
-61.31202844734374
 31
0.0
  0
LINE
  5
56
330
17
100
AcDbEntity
  8
0
100
AcDbLine
 10
-27.780840303698973
 20
-58.326412028305676
 30
-5.0
 11
-27.780840303698973
 21
-58.326412028305676
 31
0.0
  0
LINE
  5
57
330
17
100
AcDbEntity
  8
0
100
AcDbLine
 10
-44.71311242134169
 20
-61.31202844734374
 30
0.0
 11
-27.780840303698973
 21
-58.326412028305676
 31
0.0
  0
LINE
  5
58
330
17
100
AcDbEntity
  8
0
100
AcDbLine
 10
-44.71470418613348
 20
-61.3054949128438
 30
-5.0
 11
-44.71470418613348
 21
-61.3054949128438
 31
0.0
  0
LINE
  5
59
330
17
100
AcDbEntity
  8
0
100
AcDbLine
 10
-44.71470418613348
 20
-61.3054949128438
 30
0.0
 11
-44.713112421341656
 21
-61.312028447343735
 31
0.0
  0
LINE
  5
5A
330
17
100
AcDbEntity
  8
0
100
AcDbLine
 10
-5.629949416797521
 20
-58.58052712492602
 30
-5.0
 11
-5.629949416797521
 21
-58.58052712492602
 31
0.0
  0
LINE
  5
5B
330
17
100
AcDbEntity
  8
0
100
AcDbLine
 10
-27.780840303698977
 20
-58.326412028305676
 30
0.0
 11
-5.629949416797519
 21
-58.58052712492602
 31
0.0
  0
LINE
  5
5C
330
17
100
AcDbEntity
  8
0
100
AcDbLine
 10
-58.79063568184471
 20
-67.8692095649591
 30
-5.0
 11
-58.79063568184471
 21
-67.8692095649591
 31
0.0
  0
LINE
  5
5D
330
17
100
AcDbEntity
  8
0
100
AcDbLine
 10
-44.71470418613349
 20
-61.3054949128438
 30
0.0
 11
-58.790635681844726
 21
-67.8692095649591
 31
0.0
  0
LINE
  5
5E
330
17
100
AcDbEntity
  8
0
100
AcDbLine
 10
14.213927322228217
 20
-58.58052712492602
 30
-5.0
 11
14.213927322228217
 21
-58.58052712492602
 31
0.0
  0
LINE
  5
5F
330
17
100
AcDbEntity
  8
0
100
AcDbLine
 10
-5.629949416797519
 20
-58.58052712492603
 30
0.0
 11
14.213927322228217
 21
-58.58052712492603
 31
0.0
  0
LINE
  5
60
330
17
100
AcDbEntity
  8
0
100
AcDbLine
 10
-60.53102682812576
 20
-69.72054682183315
 30
-5.0
 11
-60.53102682812576
 21
-69.72054682183315
 31
0.0
  0
LINE
  5
61
330
17
100
AcDbEntity
  8
0
100
AcDbLine
 10
-60.531026828125775
 20
-69.72054682183315
 30
0.0
 11
-58.79063568184472
 21
-67.8692095649591
 31
0.0
  0
LINE
  5
62
330
17
100
AcDbEntity
  8
0
100
AcDbLine
 10
14.755308447282273
 20
-56.780528503771905
 30
-5.0
 11
14.755308447282273
 21
-56.780528503771905
 31
0.0
  0
LINE
  5
63
330
17
100
AcDbEntity
  8
0
100
AcDbLine
 10
14.755308447282276
 20
-56.780528503771905
 30
0.0
 11
14.213927322228221
 21
-58.58052712492602
 31
0.0
  0
LINE
  5
64
330
17
100
AcDbEntity
  8
0
100
AcDbLine
 10
-69.04109381106709
 20
-76.86134088851317
 30
-5.0
 11
-69.04109381106709
 21
-76.86134088851317
 31
0.0
  0
LINE
  5
65
330
17
100
AcDbEntity
  8
0
100
AcDbLine
 10
-60.53102682812577
 20
-69.72054682183315
 30
0.0
 11
-69.04109381106696
 21
-76.86134088851333
 31
0.0
  0
LINE
  5
66
330
17
100
AcDbEntity
  8
0
100
AcDbLine
 10
16.039226056116824
 20
-47.321018407212826
 30
-5.0
 11
16.039226056116824
 21
-47.321018407212826
 31
0.0
  0
LINE
  5
67
330
17
100
AcDbEntity
  8
0
100
AcDbLine
 10
14.755308447282276
 20
-56.78052850377191
 30
0.0
 11
16.039226056116828
 21
-47.321018407212826
 31
0.0
  0
LINE
  5
68
330
17
100
AcDbEntity
  8
0
100
AcDbLine
 10
-76.34523069039902
 20
-74.55157459453604
 30
-5.0
 11
-76.34523069039902
 21
-74.55157459453604
 31
0.0
  0
LINE
  5
69
330
17
100
AcDbEntity
  8
0
100
AcDbLine
 10
-76.345230690399
 20
-74.55157459453605
 30
0.0
 11
-69.04109381106709
 21
-76.86134088851317
 31
0.0
  0
LINE
  5
6A
330
17
100
AcDbEntity
  8
0
100
AcDbLine
 10
52.320938500758864
 20
-47.321018407212826
 30
-5.0
 11
52.320938500758864
 21
-47.321018407212826
 31
0.0
  0
LINE
  5
6B
330
17
100
AcDbEntity
  8
0
100
AcDbLine
 10
16.039226056116824
 20
-47.321018407212826
 30
0.0
 11
52.320938500758864
 21
-47.321018407212826
 31
0.0
  0
LINE
  5
6C
330
17
100
AcDbEntity
  8
0
100
AcDbLine
 10
-91.59938637976535
 20
-58.400219272405295
 30
-5.0
 11
-91.59938637976535
 21
-58.400219272405295
 31
0.0
  0
LINE
  5
6D
330
17
100
AcDbEntity
  8
0
100
AcDbLine
 10
-76.34523069039903
 20
-74.55157459453605
 30
0.0
 11
-91.59938637976556
 21
-58.40021927240548
 31
0.0
  0
LINE
  5
6E
330
17
100
AcDbEntity
  8
0
100
AcDbLine
 10
56.820938500758864
 20
-41.0425001643176
 30
-5.0
 11
56.820938500758864
 21
-41.0425001643176
 31
0.0
  0
LINE
  5
6F
330
17
100
AcDbEntity
  8
0
100
AcDbLine
 10
52.32093850075887
 20
-47.32101840721283
 30
0.0
 11
56.82093850075887
 21
-41.0425001643176
 31
0.0
  0
LINE
  5
70
330
17
100
AcDbEntity
  8
0
100
AcDbLine
 10
-93.18780662876355
 20
-51.29439726200128
 30
-5.0
 11
-93.18780662876355
 21
-51.29439726200128
 31
0.0
  0
LINE
  5
71
330
17
100
AcDbEntity
  8
0
100
AcDbLine
 10
-93.18780662876355
 20
-51.29439726200128
 30
0.0
 11
-91.59938637976535
 21
-58.400219272405295
 31
0.0
  0
LINE
  5
72
330
17
100
AcDbEntity
  8
0
100
AcDbLine
 10
56.82093850075886
 20
43.95136056296658
 30
-5.0
 11
56.82093850075886
 21
43.95136056296658
 31
0.0
  0
LINE
  5
73
330
17
100
AcDbEntity
  8
0
100
AcDbLine
 10
56.82093850075883
 20
43.95136056296657
 30
0.0
 11
56.82093850075887
 21
-41.04250016431761
 31
0.0
  0
LINE
  5
74
330
17
100
AcDbEntity
  8
0
100
AcDbLine
 10
-91.89601726745133
 20
-49.71922930095319
 30
-5.0
 11
-91.89601726745133
 21
-49.71922930095319
 31
0.0
  0
LINE
  5
75
330
17
100
AcDbEntity
  8
0
100
AcDbLine
 10
-93.18780662876355
 20
-51.29439726200129
 30
0.0
 11
-91.89601726745133
 21
-49.719229300953195
 31
0.0
  0
LINE
  5
76
330
17
100
AcDbEntity
  8
0
100
AcDbLine
 10
52.32093850075886
 20
49.58052712492602
 30
-5.0
 11
52.32093850075886
 21
49.58052712492602
 31
0.0
  0
LINE
  5
77
330
17
100
AcDbEntity
  8
0
100
AcDbLine
 10
56.82093850075884
 20
43.95136056296656
 30
0.0
 11
52.32093850075884
 21
49.58052712492601
 31
0.0
  0
LINE
  5
78
330
17
100
AcDbEntity
  8
0
100
AcDbLine
 10
-81.44895742645247
 20
-40.95310524148406
 30
-5.0
 11
-81.44895742645247
 21
-40.95310524148406
 31
0.0
  0
LINE
  5
79
330
17
100
AcDbEntity
  8
0
100
AcDbLine
 10
-81.44895742645241
 20
-40.95310524148413
 30
0.0
 11
-91.89601726745062
 21
-49.719229300954034
 31
0.0
  0
LINE
  5
7A
330
17
100
AcDbEntity
  8
0
100
AcDbLine
 10
14.733055388604987
 20
49.58052712492602
 30
-5.0
 11
14.733055388604987
 21
49.58052712492602
 31
0.0
  0
LINE
  5
7B
330
17
100
AcDbEntity
  8
0
100
AcDbLine
 10
14.733055388604988
 20
49.58052712492602
 30
0.0
 11
52.32093850075886
 21
49.58052712492602
 31
0.0
  0
LINE
  5
7C
330
17
100
AcDbEntity
  8
0
100
AcDbLine
 10
-71.32580427304916
 20
-31.306896330112526
 30
-5.0
 11
-71.32580427304916
 21
-31.306896330112526
 31
0.0
  0
LINE
  5
7D
330
17
100
AcDbEntity
  8
0
100
AcDbLine
 10
-71.32580427304917
 20
-31.306896330112515
 30
0.0
 11
-81.44895742645247
 21
-40.95310524148407
 31
0.0
  0
LINE
  5
7E
330
17
100
AcDbEntity
  8
0
100
AcDbLine
 10
11.998109820351894
 20
58.58052712492602
 30
-5.0
 11
11.998109820351894
 21
58.58052712492602
 31
0.0
  0
LINE
  5
7F
330
17
100
AcDbEntity
  8
0
100
AcDbLine
 10
14.733055388604988
 20
49.58052712492602
 30
-8.881784197001252e-16
 11
11.998109820351894
 21
58.58052712492602
 31
-8.881784197001252e-16
  0
LINE
  5
80
330
17
100
AcDbEntity
  8
0
100
AcDbLine
 10
-73.26257348790367
 20
-14.203676064681439
 30
-5.0
 11
-73.26257348790367
 21
-14.203676064681439
 31
0.0
  0
LINE
  5
81
330
17
100
AcDbEntity
  8
0
100
AcDbLine
 10
-71.32580427304917
 20
-31.30689633011253
 30
0.0
 11
-73.2625734879037
 21
-14.203676064681442
 31
0.0
  0
LINE
  5
82
330
17
100
AcDbEntity
  8
0
100
AcDbLine
 10
-5.531468638936349
 20
58.58052712492602
 30
-5.0
 11
-5.531468638936349
 21
58.58052712492602
 31
0.0
  0
LINE
  5
83
330
17
100
AcDbEntity
  8
0
100
AcDbLine
 10
-5.531468638936349
 20
58.58052712492601
 30
0.0
 11
11.9981098203519
 21
58.58052712492601
 31
0.0
  0
LINE
  5
84
330
17
100
AcDbEntity
  8
0
100
AcDbLine
 10
-73.55488097461293
 20
-8.950000000000001
 30
-5.0
 11
-73.55488097461293
 21
-8.950000000000001
 31
0.0
  0
LINE
  5
85
330
17
100
AcDbEntity
  8
0
100
AcDbLine
 10
-73.55488097461294
 20
-8.950000000000001
 30
-3.552713678800501e-15
 11
-73.26257348790368
 21
-14.203676064681439
 31
-3.552713678800501e-15
  0
LINE
  5
86
330
17
100
AcDbEntity
  8
0
100
AcDbLine
 10
-7.888325913316088
 20
61.40052712492602
 30
-5.0
 11
-7.888325913316088
 21
61.40052712492602
 31
0.0
  0
LINE
  5
87
330
17
100
AcDbEntity
  8
0
100
AcDbLine
 10
-7.8883259133160895
 20
61.40052712492602
 30
0.0
 11
-5.531468638936351
 21
58.58052712492602
 31
0.0
  0
LINE
  5
88
330
17
100
AcDbEntity
  8
0
100
AcDbLine
 10
-73.55488097461293
 20
8.950000000000001
 30
-5.0
 11
-73.55488097461293
 21
8.950000000000001
 31
0.0
  0
LINE
  5
89
330
17
100
AcDbEntity
  8
0
100
AcDbLine
 10
-73.55488097461293
 20
8.95
 30
0.0
 11
-73.55488097461293
 21
-8.950000000000003
 31
0.0
  0
LINE
  5
8A
330
17
100
AcDbEntity
  8
0
100
AcDbLine
 10
-25.17839922836603
 20
61.40052712492602
 30
-5.0
 11
-25.17839922836603
 21
61.40052712492602
 31
0.0
  0
LINE
  5
8B
330
17
100
AcDbEntity
  8
0
100
AcDbLine
 10
-25.17839922836603
 20
61.40052712492602
 30
0.0
 11
-7.888325913316088
 21
61.40052712492602
 31
0.0
  0
LINE
  5
8C
330
17
100
AcDbEntity
  8
0
100
AcDbLine
 10
-73.26257348790367
 20
14.203676064681439
 30
-5.0
 11
-73.26257348790367
 21
14.203676064681439
 31
0.0
  0
LINE
  5
8D
330
17
100
AcDbEntity
  8
0
100
AcDbLine
 10
-73.55488097461293
 20
8.95
 30
-3.552713678800501e-15
 11
-73.26257348790367
 21
14.203676064681439
 31
-3.552713678800501e-15
  0
LINE
  5
8E
330
17
100
AcDbEntity
  8
0
100
AcDbLine
 10
-26.96560291180835
 20
58.58052712492602
 30
-5.0
 11
-26.96560291180835
 21
58.58052712492602
 31
0.0
  0
LINE
  5
8F
330
17
100
AcDbEntity
  8
0
100
AcDbLine
 10
-26.965602911808354
 20
58.58052712492602
 30
0.0
 11
-25.178399228366036
 21
61.40052712492602
 31
0.0
  0
LINE
  5
90
330
17
100
AcDbEntity
  8
0
100
AcDbLine
 10
-71.31558317550221
 20
31.397156791379143
 30
-5.0
 11
-71.31558317550221
 21
31.397156791379143
 31
0.0
  0
LINE
  5
91
330
17
100
AcDbEntity
  8
0
100
AcDbLine
 10
-71.3155831755022
 20
31.39715679137915
 30
-3.552713678800501e-15
 11
-73.26257348790367
 21
14.203676064681439
 31
-3.552713678800501e-15
  0
LINE
  5
92
330
17
100
AcDbEntity
  8
0
100
AcDbLine
 10
-61.723521910124155
 20
58.58052712492602
 30
-5.0
 11
-61.723521910124155
 21
58.58052712492602
 31
0.0
  0
LINE
  5
93
330
17
100
AcDbEntity
  8
0
100
AcDbLine
 10
-61.72352191012415
 20
58.58052712492601
 30
0.0
 11
-26.965602911808347
 21
58.58052712492601
 31
0.0
  0
LINE
  5
94
330
17
100
AcDbEntity
  8
0
100
AcDbLine
 10
-70.45858095407328
 20
36.2928041157329
 30
-5.0
 11
-70.45858095407328
 21
36.2928041157329
 31
0.0
  0
LINE
  5
95
330
17
100
AcDbEntity
  8
0
100
AcDbLine
 10
-71.31558317550223
 20
31.39715679137914
 30
0.0
 11
-70.4585809540733
 21
36.2928041157329
 31
0.0
  0
LINE
  5
96
330
17
100
AcDbEntity
  8
0
100
AcDbLine
 10
-62.19728427864165
 20
58.208060239252596
 30
-5.0
 11
-62.19728427864165
 21
58.208060239252596
 31
0.0
  0
LINE
  5
97
330
17
100
AcDbEntity
  8
0
100
AcDbLine
 10
-62.19728427864165
 20
58.208060239252596
 30
0.0
 11
-61.723521910124155
 21
58.58052712492602
 31
0.0
  0
LINE
  5
98
330
17
100
AcDbEntity
  8
0
100
AcDbLine
 10
-66.69728427864166
 20
51.708060239252596
 30
-5.0
 11
-66.69728427864166
 21
51.708060239252596
 31
0.0
  0
LINE
  5
99
330
17
100
AcDbEntity
  8
0
100
AcDbLine
 10
-66.69728427864167
 20
51.7080602392526
 30
0.0
 11
-70.4585809540733
 21
36.2928041157329
 31
0.0
  0
LINE
  5
9A
330
17
100
AcDbEntity
  8
0
100
AcDbLine
 10
-66.69728427864165
 20
51.70806023925259
 30
0.0
 11
-62.197284278641646
 21
58.20806023925259
 31
0.0
  0
LINE
  5
9B
330
17
100
AcDbEntity
  8
0
100
AcDbLine
 10
-64.73907833170294
 20
-22.75041642803029
 30
-5.0
 11
-64.73907833170294
 21
-22.75041642803029
 31
-3.75
  0
CIRCLE
  5
9C
330
17
100
AcDbEntity
  8
0
100
AcDbCircle
 10
-67.73907833170294
 20
-22.75041642803029
 30
-3.75
 40
3.0
  0
LINE
  5
9D
330
17
100
AcDbEntity
  8
0
100
AcDbLine
 10
10.628573724019036
 20
-53.53962917572293
 30
-5.0
 11
10.628573724019036
 21
-53.53962917572293
 31
-3.75
  0
CIRCLE
  5
9E
330
17
100
AcDbEntity
  8
0
100
AcDbCircle
 10
7.628573724019036
 20
-53.53962917572293
 30
-3.75
 40
3.0
  0
LINE
  5
9F
330
17
100
AcDbEntity
  8
0
100
AcDbLine
 10
55.02093850075885
 20
38.45043064544177
 30
-5.0
 11
55.02093850075885
 21
38.45043064544177
 31
-3.75
  0
CIRCLE
  5
A0
330
17
100
AcDbEntity
  8
0
100
AcDbCircle
 10
52.02093850075885
 20
38.45043064544177
 30
-3.75
 40
3.0
  0
CIRCLE
  5
A1
330
17
100
AcDbEntity
  8
0
100
AcDbCircle
 10
-67.73907833170296
 20
-22.750416428030288
 30
0.0
 40
1.0
  0
CIRCLE
  5
A2
330
17
100
AcDbEntity
  8
0
100
AcDbCircle
 10
7.628573724019032
 20
-53.53962917572292
 30
0.0
 40
1.0
  0
CIRCLE
  5
A3
330
17
100
AcDbEntity
  8
0
100
AcDbCircle
 10
52.02093850075885
 20
38.45043064544177
 30
0.0
 40
1.0
  0
LINE
  5
A4
330
17
100
AcDbEntity
  8
0
100
AcDbLine
 10
-89.91532219973396
 20
-51.92392272676632
 30
0.0
 11
-88.58798570630974
 21
-55.511951706730834
 31
0.0
  0
LINE
  5
A5
330
17
100
AcDbEntity
  8
0
100
AcDbLine
 10
-89.9153221997336
 20
-51.923922726767266
 30
0.0
 11
-80.04136990498934
 21
-43.63869299798406
 31
0.0
  0
LINE
  5
A6
330
17
100
AcDbEntity
  8
0
100
AcDbLine
 10
-79.43254123195514
 20
-42.89630615981045
 30
0.0
 11
-80.04136990498934
 21
-43.638692997984066
 31
0.0
  0
LINE
  5
A7
330
17
100
AcDbEntity
  8
0
100
AcDbLine
 10
-68.7155831755022
 20
-31.397156791379143
 30
0.0
 11
-79.43254123195527
 21
-42.89630615981061
 31
0.0
  0
LINE
  5
A8
330
17
100
AcDbEntity
  8
0
100
AcDbLine
 10
-68.7155831755022
 20
-31.39715679137914
 30
0.0
 11
-68.7155831755022
 21
-31.297156791379138
 31
0.0
  0
LINE
  5
A9
330
17
100
AcDbEntity
  8
0
100
AcDbLine
 10
-69.26469624717653
 20
-26.448049451463806
 30
-1.7763568394002505e-15
 11
-68.71558317550222
 21
-31.297156791379145
 31
-1.7763568394002505e-15
  0
ARC
  5
AA
330
17
100
AcDbEntity
  8
0
100
AcDbCircle
 10
-67.73907833170296
 20
-22.750416428030288
 30
0.0
 40
4.0
100
AcDbArc
 50
247.57929352378972
 51
485.3420146351587
  0
LINE
  5
AB
330
17
100
AcDbEntity
  8
0
100
AcDbLine
 10
-70.66257348790367
 20
-14.103676064681437
 30
-1.7763568394002505e-15
 11
-70.05290208184147
 21
-19.48756190272657
 31
-1.7763568394002505e-15
  0
LINE
  5
AC
330
17
100
AcDbEntity
  8
0
100
AcDbLine
 10
-70.95488097461293
 20
-8.849999999999998
 30
-8.881784197001252e-16
 11
-70.66257348790367
 21
-14.103676064681437
 31
-8.881784197001252e-16
  0
LINE
  5
AD
330
17
100
AcDbEntity
  8
0
100
AcDbLine
 10
-70.95488097461293
 20
8.85
 30
0.0
 11
-70.95488097461293
 21
-8.849999999999998
 31
0.0
  0
LINE
  5
AE
330
17
100
AcDbEntity
  8
0
100
AcDbLine
 10
-70.95488097461295
 20
8.85
 30
-8.881784197001252e-16
 11
-70.66257348790369
 21
14.103676064681437
 31
-8.881784197001252e-16
  0
LINE
  5
AF
330
17
100
AcDbEntity
  8
0
100
AcDbLine
 10
-70.66257348790369
 20
14.103676064681435
 30
-1.7763568394002505e-15
 11
-68.71558317550223
 21
31.29715679137914
 31
-1.7763568394002505e-15
  0
LINE
  5
B0
330
17
100
AcDbEntity
  8
0
100
AcDbLine
 10
-68.71558317550222
 20
31.297156791379134
 30
0.0
 11
-67.85858095407329
 21
36.192804115732905
 31
0.0
  0
LINE
  5
B1
330
17
100
AcDbEntity
  8
0
100
AcDbLine
 10
-64.09728427864164
 20
51.6080602392526
 30
0.0
 11
-67.85858095407328
 21
36.192804115732905
 31
0.0
  0
LINE
  5
B2
330
17
100
AcDbEntity
  8
0
100
AcDbLine
 10
-64.09728427864167
 20
51.60806023925261
 30
0.0
 11
-62.127572442655676
 21
55.5474839112246
 31
0.0
  0
LINE
  5
B3
330
17
100
AcDbEntity
  8
0
100
AcDbLine
 10
-62.127572442655676
 20
55.5474839112246
 30
0.0
 11
-60.955332157471176
 21
54.528861878988124
 31
0.0
  0
LINE
  5
B4
330
17
100
AcDbEntity
  8
0
100
AcDbLine
 10
-60.955332157471176
 20
54.52886187898812
 30
0.0
 11
-26.24994643889989
 21
54.52886187898812
 31
0.0
  0
LINE
  5
B5
330
17
100
AcDbEntity
  8
0
100
AcDbLine
 10
-24.611353398170323
 20
57.34886187898812
 30
0.0
 11
-26.249946438899883
 21
54.52886187898811
 31
0.0
  0
LINE
  5
B6
330
17
100
AcDbEntity
  8
0
100
AcDbLine
 10
-24.611353398170333
 20
57.348861878988124
 30
0.0
 11
-7.5144652598248705
 21
57.348861878988124
 31
0.0
  0
LINE
  5
B7
330
17
100
AcDbEntity
  8
0
100
AcDbLine
 10
-7.514465259824872
 20
57.34886187898813
 30
0.0
 11
-5.314310561049425
 21
54.528861878988124
 31
0.0
  0
LINE
  5
B8
330
17
100
AcDbEntity
  8
0
100
AcDbLine
 10
-5.314310561049426
 20
54.528861878988124
 30
0.0
 11
12.19354834418895
 21
54.528861878988124
 31
0.0
  0
LINE
  5
B9
330
17
100
AcDbEntity
  8
0
100
AcDbLine
 10
14.791858189581447
 20
45.528861878988124
 30
0.0
 11
12.193548344188946
 21
54.528861878988124
 31
0.0
  0
LINE
  5
BA
330
17
100
AcDbEntity
  8
0
100
AcDbLine
 10
14.791858189581447
 20
45.528861878988124
 30
0.0
 11
52.220938500758876
 21
45.528861878988124
 31
0.0
  0
LINE
  5
BB
330
17
100
AcDbEntity
  8
0
100
AcDbLine
 10
52.220938500758855
 20
45.528861878988124
 30
0.0
 11
54.220938500758855
 21
42.06475937932077
 31
0.0
  0
LINE
  5
BC
330
17
100
AcDbEntity
  8
0
100
AcDbLine
 10
54.22093850075889
 20
42.064759379320776
 30
0.0
 11
54.22093850075889
 21
41.79108926313975
 31
0.0
  0
ARC
  5
BD
330
17
100
AcDbEntity
  8
0
100
AcDbCircle
 10
52.02093850075885
 20
38.45043064544177
 30
0.0
 40
4.0
100
AcDbArc
 50
56.63298703076761
 51
303.36701296923235
  0
LINE
  5
BE
330
17
100
AcDbEntity
  8
0
100
AcDbLine
 10
54.22093850075889
 20
35.10977202774377
 30
0.0
 11
54.22093850075886
 21
-40.01415978254759
 31
0.0
  0
LINE
  5
BF
330
17
100
AcDbEntity
  8
0
100
AcDbLine
 10
54.220938500758855
 20
-40.01415978254759
 30
0.0
 11
52.22093850075887
 21
-43.87786331663697
 31
0.0
  0
LINE
  5
C0
330
17
100
AcDbEntity
  8
0
100
AcDbLine
 10
14.762177621861913
 20
-43.87786331663697
 30
0.0
 11
52.22093850075887
 21
-43.87786331663697
 31
0.0
  0
LINE
  5
C1
330
17
100
AcDbEntity
  8
0
100
AcDbLine
 10
14.459108321060384
 20
-44.80961111005473
 30
0.0
 11
14.762177621861916
 21
-43.87786331663697
 31
0.0
  0
LINE
  5
C2
330
17
100
AcDbEntity
  8
0
100
AcDbLine
 10
14.459108321060382
 20
-44.80961111005473
 30
0.0
 11
12.940027318579919
 21
-54.528861878988124
 31
0.0
  0
LINE
  5
C3
330
17
100
AcDbEntity
  8
0
100
AcDbLine
 10
11.504321220798282
 20
-54.528861878988124
 30
0.0
 11
12.940027318579917
 21
-54.528861878988124
 31
0.0
  0
ARC
  5
C4
330
17
100
AcDbEntity
  8
0
100
AcDbCircle
 10
7.628573724019032
 20
-53.53962917572292
 30
0.0
 40
4.0
100
AcDbArc
 50
345.6817191191976
 51
554.3182808808021
  0
LINE
  5
C5
330
17
100
AcDbEntity
  8
0
100
AcDbLine
 10
-5.314310561049426
 20
-54.528861878988124
 30
0.0
 11
3.752826227239782
 21
-54.528861878988124
 31
0.0
  0
LINE
  5
C6
330
17
100
AcDbEntity
  8
0
100
AcDbLine
 10
-5.314310561049427
 20
-54.528861878988124
 30
0.0
 11
-27.545009239566994
 21
-54.838787833131825
 31
0.0
  0
LINE
  5
C7
330
17
100
AcDbEntity
  8
0
100
AcDbLine
 10
-44.07691127171653
 20
-57.753808203828896
 30
0.0
 11
-27.545009239566987
 21
-54.838787833131825
 31
0.0
  0
LINE
  5
C8
330
17
100
AcDbEntity
  8
0
100
AcDbLine
 10
-44.19150913869648
 20
-57.546567286202894
 30
0.0
 11
-44.07691127171654
 21
-57.7538082038289
 31
0.0
  0
LINE
  5
C9
330
17
100
AcDbEntity
  8
0
100
AcDbLine
 10
-44.19150913869649
 20
-57.546567286202915
 30
0.0
 11
-59.124775967429166
 21
-64.51006396971299
 31
0.0
  0
LINE
  5
CA
330
17
100
AcDbEntity
  8
0
100
AcDbLine
 10
-59.6318578771171
 20
-65.09936056006629
 30
0.0
 11
-59.12477596742916
 21
-64.51006396971296
 31
0.0
  0
LINE
  5
CB
330
17
100
AcDbEntity
  8
0
100
AcDbLine
 10
-59.631857877117085
 20
-65.09936056006629
 30
0.0
 11
-62.308023332459214
 21
-67.34493000661325
 31
0.0
  0
ARC
  5
CC
330
17
100
AcDbEntity
  8
0
100
AcDbCircle
 10
-62.035774154904715
 20
-68.30715679137913
 30
0.0
 40
1.0
100
AcDbArc
 50
-205.79814995946475
 51
105.79814995946462
  0
LINE
  5
CD
330
17
100
AcDbEntity
  8
0
100
AcDbLine
 10
-62.936106979144505
 20
-67.87195476289534
 30
0.0
 11
-69.46430791286161
 21
-73.34976575862856
 31
0.0
  0
LINE
  5
CE
330
17
100
AcDbEntity
  8
0
100
AcDbLine
 10
-69.46430791286163
 20
-73.34976575862856
 30
0.0
 11
-73.47063858814849
 21
-71.5184518241788
 31
0.0
  0
LINE
  5
CF
330
17
100
AcDbEntity
  8
0
100
AcDbLine
 10
-88.58798570630974
 20
-55.51195170673084
 30
0.0
 11
-73.47063858814847
 21
-71.5184518241788
 31
0.0
  0
CIRCLE
  5
D0
330
17
100
AcDbEntity
  8
0
100
AcDbCircle
 10
-67.73907833170296
 20
-22.750416428030288
 30
-3.75
 40
1.0
  0
CIRCLE
  5
D1
330
17
100
AcDbEntity
  8
0
100
AcDbCircle
 10
7.628573724019032
 20
-53.53962917572292
 30
-3.75
 40
1.0
  0
CIRCLE
  5
D2
330
17
100
AcDbEntity
  8
0
100
AcDbCircle
 10
52.02093850075885
 20
38.45043064544177
 30
-3.75
 40
1.0
  0
LINE
  5
D3
330
17
100
AcDbEntity
  8
0
100
AcDbLine
 10
-66.73907833170296
 20
-22.750416428030288
 30
-3.75
 11
-66.73907833170296
 21
-22.750416428030288
 31
0.0
  0
LINE
  5
D4
330
17
100
AcDbEntity
  8
0
100
AcDbLine
 10
8.62857372401903
 20
-53.53962917572292
 30
-3.75
 11
8.62857372401903
 21
-53.53962917572292
 31
0.0
  0
LINE
  5
D5
330
17
100
AcDbEntity
  8
0
100
AcDbLine
 10
53.02093850075885
 20
38.45043064544177
 30
-3.75
 11
53.02093850075885
 21
38.45043064544177
 31
0.0
  0
LINE
  5
D6
330
17
100
AcDbEntity
  8
0
100
AcDbLine
 10
-89.91532219973396
 20
-51.92392272676632
 30
-2.0
 11
-88.58798570630974
 21
-55.511951706730834
 31
-2.0
  0
LINE
  5
D7
330
17
100
AcDbEntity
  8
0
100
AcDbLine
 10
-88.58798570630972
 20
-55.51195170673083
 30
-2.0
 11
-88.58798570630972
 21
-55.51195170673083
 31
0.0
  0
LINE
  5
D8
330
17
100
AcDbEntity
  8
0
100
AcDbLine
 10
-89.9153221997336
 20
-51.92392272676727
 30
-2.0
 11
-89.9153221997336
 21
-51.92392272676727
 31
0.0
  0
LINE
  5
D9
330
17
100
AcDbEntity
  8
0
100
AcDbLine
 10
-89.9153221997336
 20
-51.923922726767266
 30
-2.0
 11
-80.04136990498934
 21
-43.63869299798406
 31
-2.0
  0
LINE
  5
DA
330
17
100
AcDbEntity
  8
0
100
AcDbLine
 10
-80.04136990498934
 20
-43.63869299798406
 30
-2.0
 11
-80.04136990498934
 21
-43.63869299798406
 31
0.0
  0
LINE
  5
DB
330
17
100
AcDbEntity
  8
0
100
AcDbLine
 10
-79.43254123195514
 20
-42.89630615981045
 30
-2.0
 11
-80.04136990498934
 21
-43.638692997984066
 31
-2.0
  0
LINE
  5
DC
330
17
100
AcDbEntity
  8
0
100
AcDbLine
 10
-79.43254123195513
 20
-42.89630615981046
 30
-2.0
 11
-79.43254123195513
 21
-42.89630615981046
 31
0.0
  0
LINE
  5
DD
330
17
100
AcDbEntity
  8
0
100
AcDbLine
 10
-68.7155831755022
 20
-31.397156791379143
 30
-2.0
 11
-79.43254123195527
 21
-42.89630615981061
 31
-2.0
  0
LINE
  5
DE
330
17
100
AcDbEntity
  8
0
100
AcDbLine
 10
-68.71558317550222
 20
-31.39715679137914
 30
-2.0
 11
-68.71558317550222
 21
-31.39715679137914
 31
0.0
  0
LINE
  5
DF
330
17
100
AcDbEntity
  8
0
100
AcDbLine
 10
-68.7155831755022
 20
-31.39715679137914
 30
-2.0
 11
-68.7155831755022
 21
-31.297156791379138
 31
-2.0
  0
LINE
  5
E0
330
17
100
AcDbEntity
  8
0
100
AcDbLine
 10
-68.71558317550222
 20
-31.297156791379138
 30
-2.0
 11
-68.71558317550222
 21
-31.297156791379138
 31
0.0
  0
LINE
  5
E1
330
17
100
AcDbEntity
  8
0
100
AcDbLine
 10
-69.26469624717653
 20
-26.448049451463806
 30
-2.0000000000000018
 11
-68.71558317550222
 21
-31.297156791379145
 31
-2.0000000000000018
  0
LINE
  5
E2
330
17
100
AcDbEntity
  8
0
100
AcDbLine
 10
-69.26469624717652
 20
-26.448049451463802
 30
-2.0
 11
-69.26469624717652
 21
-26.448049451463802
 31
0.0
  0
ARC
  5
E3
330
17
100
AcDbEntity
  8
0
100
AcDbCircle
 10
-67.73907833170296
 20
-22.750416428030288
 30
-2.0
 40
4.0
100
AcDbArc
 50
247.57929352378972
 51
485.3420146351587
  0
LINE
  5
E4
330
17
100
AcDbEntity
  8
0
100
AcDbLine
 10
-70.05290208184147
 20
-19.48756190272657
 30
-2.0
 11
-70.05290208184147
 21
-19.48756190272657
 31
0.0
  0
LINE
  5
E5
330
17
100
AcDbEntity
  8
0
100
AcDbLine
 10
-70.66257348790367
 20
-14.103676064681437
 30
-2.0000000000000018
 11
-70.05290208184147
 21
-19.48756190272657
 31
-2.0000000000000018
  0
LINE
  5
E6
330
17
100
AcDbEntity
  8
0
100
AcDbLine
 10
-70.66257348790367
 20
-14.103676064681437
 30
-2.0
 11
-70.66257348790367
 21
-14.103676064681437
 31
0.0
  0
LINE
  5
E7
330
17
100
AcDbEntity
  8
0
100
AcDbLine
 10
-70.95488097461293
 20
-8.849999999999998
 30
-2.000000000000001
 11
-70.66257348790367
 21
-14.103676064681437
 31
-2.000000000000001
  0
LINE
  5
E8
330
17
100
AcDbEntity
  8
0
100
AcDbLine
 10
-70.95488097461293
 20
-8.85
 30
-2.0
 11
-70.95488097461293
 21
-8.85
 31
0.0
  0
LINE
  5
E9
330
17
100
AcDbEntity
  8
0
100
AcDbLine
 10
-70.95488097461293
 20
8.85
 30
-2.0
 11
-70.95488097461293
 21
-8.849999999999998
 31
-2.0
  0
LINE
  5
EA
330
17
100
AcDbEntity
  8
0
100
AcDbLine
 10
-70.95488097461293
 20
8.85
 30
-2.0
 11
-70.95488097461293
 21
8.85
 31
0.0
  0
LINE
  5
EB
330
17
100
AcDbEntity
  8
0
100
AcDbLine
 10
-70.95488097461295
 20
8.85
 30
-2.000000000000001
 11
-70.66257348790369
 21
14.103676064681437
 31
-2.000000000000001
  0
LINE
  5
EC
330
17
100
AcDbEntity
  8
0
100
AcDbLine
 10
-70.66257348790367
 20
14.103676064681437
 30
-2.0
 11
-70.66257348790367
 21
14.103676064681437
 31
0.0
  0
LINE
  5
ED
330
17
100
AcDbEntity
  8
0
100
AcDbLine
 10
-70.66257348790369
 20
14.103676064681435
 30
-2.0000000000000018
 11
-68.71558317550223
 21
31.29715679137914
 31
-2.0000000000000018
  0
LINE
  5
EE
330
17
100
AcDbEntity
  8
0
100
AcDbLine
 10
-68.71558317550222
 20
31.297156791379138
 30
-2.0
 11
-68.71558317550222
 21
31.297156791379138
 31
0.0
  0
LINE
  5
EF
330
17
100
AcDbEntity
  8
0
100
AcDbLine
 10
-68.71558317550222
 20
31.297156791379134
 30
-2.0
 11
-67.85858095407329
 21
36.192804115732905
 31
-2.0
  0
LINE
  5
F0
330
17
100
AcDbEntity
  8
0
100
AcDbLine
 10
-67.85858095407329
 20
36.192804115732905
 30
-2.0
 11
-67.85858095407329
 21
36.192804115732905
 31
0.0
  0
LINE
  5
F1
330
17
100
AcDbEntity
  8
0
100
AcDbLine
 10
-64.09728427864164
 20
51.6080602392526
 30
-2.0
 11
-67.85858095407328
 21
36.192804115732905
 31
-2.0
  0
LINE
  5
F2
330
17
100
AcDbEntity
  8
0
100
AcDbLine
 10
-64.09728427864165
 20
51.6080602392526
 30
-2.0
 11
-64.09728427864165
 21
51.6080602392526
 31
0.0
  0
LINE
  5
F3
330
17
100
AcDbEntity
  8
0
100
AcDbLine
 10
-64.09728427864167
 20
51.60806023925261
 30
-2.0
 11
-62.127572442655676
 21
55.5474839112246
 31
-2.0
  0
LINE
  5
F4
330
17
100
AcDbEntity
  8
0
100
AcDbLine
 10
-62.127572442655676
 20
55.5474839112246
 30
-2.0
 11
-62.127572442655676
 21
55.5474839112246
 31
0.0
  0
LINE
  5
F5
330
17
100
AcDbEntity
  8
0
100
AcDbLine
 10
-62.127572442655676
 20
55.5474839112246
 30
-2.0
 11
-60.955332157471176
 21
54.528861878988124
 31
-2.0
  0
LINE
  5
F6
330
17
100
AcDbEntity
  8
0
100
AcDbLine
 10
-60.95533215747117
 20
54.528861878988124
 30
-2.0
 11
-60.95533215747117
 21
54.528861878988124
 31
0.0
  0
LINE
  5
F7
330
17
100
AcDbEntity
  8
0
100
AcDbLine
 10
-60.955332157471176
 20
54.52886187898812
 30
-2.0
 11
-26.24994643889989
 21
54.52886187898812
 31
-2.0
  0
LINE
  5
F8
330
17
100
AcDbEntity
  8
0
100
AcDbLine
 10
-26.24994643889989
 20
54.528861878988124
 30
-2.0
 11
-26.24994643889989
 21
54.528861878988124
 31
0.0
  0
LINE
  5
F9
330
17
100
AcDbEntity
  8
0
100
AcDbLine
 10
-24.611353398170323
 20
57.34886187898812
 30
-2.0
 11
-26.249946438899883
 21
54.52886187898811
 31
-2.0
  0
LINE
  5
FA
330
17
100
AcDbEntity
  8
0
100
AcDbLine
 10
-24.611353398170333
 20
57.348861878988124
 30
-2.0
 11
-24.611353398170333
 21
57.348861878988124
 31
0.0
  0
LINE
  5
FB
330
17
100
AcDbEntity
  8
0
100
AcDbLine
 10
-24.611353398170333
 20
57.348861878988124
 30
-2.0
 11
-7.5144652598248705
 21
57.348861878988124
 31
-2.0
  0
LINE
  5
FC
330
17
100
AcDbEntity
  8
0
100
AcDbLine
 10
-7.514465259824871
 20
57.348861878988124
 30
-2.0
 11
-7.514465259824871
 21
57.348861878988124
 31
0.0
  0
LINE
  5
FD
330
17
100
AcDbEntity
  8
0
100
AcDbLine
 10
-7.514465259824872
 20
57.34886187898813
 30
-2.0
 11
-5.314310561049425
 21
54.528861878988124
 31
-2.0
  0
LINE
  5
FE
330
17
100
AcDbEntity
  8
0
100
AcDbLine
 10
-5.314310561049426
 20
54.528861878988124
 30
-2.0
 11
-5.314310561049426
 21
54.528861878988124
 31
0.0
  0
LINE
  5
FF
330
17
100
AcDbEntity
  8
0
100
AcDbLine
 10
-5.314310561049426
 20
54.528861878988124
 30
-2.0
 11
12.19354834418895
 21
54.528861878988124
 31
-2.0
  0
LINE
  5
100
330
17
100
AcDbEntity
  8
0
100
AcDbLine
 10
12.193548344188947
 20
54.528861878988124
 30
-2.0
 11
12.193548344188947
 21
54.528861878988124
 31
0.0
  0
LINE
  5
101
330
17
100
AcDbEntity
  8
0
100
AcDbLine
 10
14.791858189581447
 20
45.528861878988124
 30
-2.0
 11
12.193548344188946
 21
54.528861878988124
 31
-2.0
  0
LINE
  5
102
330
17
100
AcDbEntity
  8
0
100
AcDbLine
 10
14.791858189581447
 20
45.528861878988124
 30
-2.0
 11
14.791858189581447
 21
45.528861878988124
 31
0.0
  0
LINE
  5
103
330
17
100
AcDbEntity
  8
0
100
AcDbLine
 10
14.791858189581447
 20
45.528861878988124
 30
-2.0
 11
52.220938500758876
 21
45.528861878988124
 31
-2.0
  0
LINE
  5
104
330
17
100
AcDbEntity
  8
0
100
AcDbLine
 10
52.22093850075886
 20
45.528861878988124
 30
-2.0
 11
52.22093850075886
 21
45.528861878988124
 31
0.0
  0
LINE
  5
105
330
17
100
AcDbEntity
  8
0
100
AcDbLine
 10
52.220938500758855
 20
45.528861878988124
 30
-2.0
 11
54.220938500758855
 21
42.06475937932077
 31
-2.0
  0
LINE
  5
106
330
17
100
AcDbEntity
  8
0
100
AcDbLine
 10
54.22093850075886
 20
42.064759379320776
 30
-2.0
 11
54.22093850075886
 21
42.064759379320776
 31
0.0
  0
LINE
  5
107
330
17
100
AcDbEntity
  8
0
100
AcDbLine
 10
54.22093850075889
 20
42.064759379320776
 30
-2.0
 11
54.22093850075889
 21
41.79108926313975
 31
-2.0
  0
LINE
  5
108
330
17
100
AcDbEntity
  8
0
100
AcDbLine
 10
54.22093850075889
 20
41.79108926313976
 30
-2.0
 11
54.22093850075889
 21
41.79108926313976
 31
0.0
  0
ARC
  5
109
330
17
100
AcDbEntity
  8
0
100
AcDbCircle
 10
52.02093850075885
 20
38.45043064544177
 30
-2.0
 40
4.0
100
AcDbArc
 50
56.63298703076761
 51
303.36701296923235
  0
LINE
  5
10A
330
17
100
AcDbEntity
  8
0
100
AcDbLine
 10
54.22093850075889
 20
35.10977202774378
 30
-2.0
 11
54.22093850075889
 21
35.10977202774378
 31
0.0
  0
LINE
  5
10B
330
17
100
AcDbEntity
  8
0
100
AcDbLine
 10
54.22093850075889
 20
35.10977202774377
 30
-2.0
 11
54.22093850075886
 21
-40.01415978254759
 31
-2.0
  0
LINE
  5
10C
330
17
100
AcDbEntity
  8
0
100
AcDbLine
 10
54.220938500758855
 20
-40.01415978254759
 30
-2.0
 11
54.220938500758855
 21
-40.01415978254759
 31
0.0
  0
LINE
  5
10D
330
17
100
AcDbEntity
  8
0
100
AcDbLine
 10
54.220938500758855
 20
-40.01415978254759
 30
-2.0
 11
52.22093850075887
 21
-43.87786331663697
 31
-2.0
  0
LINE
  5
10E
330
17
100
AcDbEntity
  8
0
100
AcDbLine
 10
52.22093850075886
 20
-43.87786331663696
 30
-2.0
 11
52.22093850075886
 21
-43.87786331663696
 31
0.0
  0
LINE
  5
10F
330
17
100
AcDbEntity
  8
0
100
AcDbLine
 10
14.762177621861913
 20
-43.87786331663697
 30
-2.0
 11
52.22093850075887
 21
-43.87786331663697
 31
-2.0
  0
LINE
  5
110
330
17
100
AcDbEntity
  8
0
100
AcDbLine
 10
14.762177621861913
 20
-43.87786331663696
 30
-2.0
 11
14.762177621861913
 21
-43.87786331663696
 31
0.0
  0
LINE
  5
111
330
17
100
AcDbEntity
  8
0
100
AcDbLine
 10
14.459108321060384
 20
-44.80961111005473
 30
-2.0
 11
14.762177621861916
 21
-43.87786331663697
 31
-2.0
  0
LINE
  5
112
330
17
100
AcDbEntity
  8
0
100
AcDbLine
 10
14.45910832106038
 20
-44.80961111005473
 30
-2.0
 11
14.45910832106038
 21
-44.80961111005473
 31
0.0
  0
LINE
  5
113
330
17
100
AcDbEntity
  8
0
100
AcDbLine
 10
14.459108321060382
 20
-44.80961111005473
 30
-2.0
 11
12.940027318579919
 21
-54.528861878988124
 31
-2.0
  0
LINE
  5
114
330
17
100
AcDbEntity
  8
0
100
AcDbLine
 10
12.940027318579919
 20
-54.528861878988124
 30
-2.0
 11
12.940027318579919
 21
-54.528861878988124
 31
0.0
  0
LINE
  5
115
330
17
100
AcDbEntity
  8
0
100
AcDbLine
 10
11.504321220798282
 20
-54.528861878988124
 30
-2.0
 11
12.940027318579917
 21
-54.528861878988124
 31
-2.0
  0
LINE
  5
116
330
17
100
AcDbEntity
  8
0
100
AcDbLine
 10
11.504321220798282
 20
-54.528861878988124
 30
-2.0
 11
11.504321220798282
 21
-54.528861878988124
 31
0.0
  0
ARC
  5
117
330
17
100
AcDbEntity
  8
0
100
AcDbCircle
 10
7.628573724019032
 20
-53.53962917572292
 30
-2.0
 40
4.0
100
AcDbArc
 50
345.6817191191976
 51
554.3182808808021
  0
LINE
  5
118
330
17
100
AcDbEntity
  8
0
100
AcDbLine
 10
3.752826227239782
 20
-54.528861878988124
 30
-2.0
 11
3.752826227239782
 21
-54.528861878988124
 31
0.0
  0
LINE
  5
119
330
17
100
AcDbEntity
  8
0
100
AcDbLine
 10
-5.314310561049426
 20
-54.528861878988124
 30
-2.0
 11
3.752826227239782
 21
-54.528861878988124
 31
-2.0
  0
LINE
  5
11A
330
17
100
AcDbEntity
  8
0
100
AcDbLine
 10
-5.314310561049426
 20
-54.528861878988124
 30
-2.0
 11
-5.314310561049426
 21
-54.528861878988124
 31
0.0
  0
LINE
  5
11B
330
17
100
AcDbEntity
  8
0
100
AcDbLine
 10
-5.314310561049427
 20
-54.528861878988124
 30
-2.0
 11
-27.545009239566994
 21
-54.838787833131825
 31
-2.0
  0
LINE
  5
11C
330
17
100
AcDbEntity
  8
0
100
AcDbLine
 10
-27.54500923956699
 20
-54.838787833131825
 30
-2.0
 11
-27.54500923956699
 21
-54.838787833131825
 31
0.0
  0
LINE
  5
11D
330
17
100
AcDbEntity
  8
0
100
AcDbLine
 10
-44.07691127171653
 20
-57.753808203828896
 30
-2.0
 11
-27.545009239566987
 21
-54.838787833131825
 31
-2.0
  0
LINE
  5
11E
330
17
100
AcDbEntity
  8
0
100
AcDbLine
 10
-44.07691127171654
 20
-57.753808203828896
 30
-2.0
 11
-44.07691127171654
 21
-57.753808203828896
 31
0.0
  0
LINE
  5
11F
330
17
100
AcDbEntity
  8
0
100
AcDbLine
 10
-44.19150913869648
 20
-57.546567286202894
 30
-2.0000000000000004
 11
-44.07691127171654
 21
-57.7538082038289
 31
-2.0000000000000004
  0
LINE
  5
120
330
17
100
AcDbEntity
  8
0
100
AcDbLine
 10
-44.19150913869649
 20
-57.546567286202894
 30
-2.0
 11
-44.19150913869649
 21
-57.546567286202894
 31
0.0
  0
LINE
  5
121
330
17
100
AcDbEntity
  8
0
100
AcDbLine
 10
-44.19150913869649
 20
-57.546567286202915
 30
-2.0000000000000004
 11
-59.124775967429166
 21
-64.51006396971299
 31
-2.0000000000000004
  0
LINE
  5
122
330
17
100
AcDbEntity
  8
0
100
AcDbLine
 10
-59.12477596742917
 20
-64.51006396971296
 30
-2.0
 11
-59.12477596742917
 21
-64.51006396971296
 31
0.0
  0
LINE
  5
123
330
17
100
AcDbEntity
  8
0
100
AcDbLine
 10
-59.6318578771171
 20
-65.09936056006629
 30
-2.0
 11
-59.12477596742916
 21
-64.51006396971296
 31
-2.0
  0
LINE
  5
124
330
17
100
AcDbEntity
  8
0
100
AcDbLine
 10
-59.6318578771171
 20
-65.09936056006629
 30
-2.0
 11
-59.6318578771171
 21
-65.09936056006629
 31
0.0
  0
LINE
  5
125
330
17
100
AcDbEntity
  8
0
100
AcDbLine
 10
-59.631857877117085
 20
-65.09936056006629
 30
-2.0
 11
-62.308023332459214
 21
-67.34493000661325
 31
-2.0
  0
LINE
  5
126
330
17
100
AcDbEntity
  8
0
100
AcDbLine
 10
-62.30802333245921
 20
-67.34493000661324
 30
-2.0
 11
-62.30802333245921
 21
-67.34493000661324
 31
0.0
  0
ARC
  5
127
330
17
100
AcDbEntity
  8
0
100
AcDbCircle
 10
-62.035774154904715
 20
-68.30715679137913
 30
-2.0
 40
1.0
100
AcDbArc
 50
-205.79814995946475
 51
105.79814995946462
  0
LINE
  5
128
330
17
100
AcDbEntity
  8
0
100
AcDbLine
 10
-62.93610697914452
 20
-67.87195476289536
 30
-2.0
 11
-62.93610697914452
 21
-67.87195476289536
 31
0.0
  0
LINE
  5
129
330
17
100
AcDbEntity
  8
0
100
AcDbLine
 10
-62.936106979144505
 20
-67.87195476289534
 30
-2.0
 11
-69.46430791286161
 21
-73.34976575862856
 31
-2.0
  0
LINE
  5
12A
330
17
100
AcDbEntity
  8
0
100
AcDbLine
 10
-69.46430791286161
 20
-73.34976575862855
 30
-2.0
 11
-69.46430791286161
 21
-73.34976575862855
 31
0.0
  0
LINE
  5
12B
330
17
100
AcDbEntity
  8
0
100
AcDbLine
 10
-69.46430791286163
 20
-73.34976575862856
 30
-2.0
 11
-73.47063858814849
 21
-71.5184518241788
 31
-2.0
  0
LINE
  5
12C
330
17
100
AcDbEntity
  8
0
100
AcDbLine
 10
-73.47063858814847
 20
-71.51845182417878
 30
-2.0
 11
-73.47063858814847
 21
-71.51845182417878
 31
0.0
  0
LINE
  5
12D
330
17
100
AcDbEntity
  8
0
100
AcDbLine
 10
-88.58798570630974
 20
-55.51195170673084
 30
-2.0
 11
-73.47063858814847
 21
-71.5184518241788
 31
-2.0
  0
ENDSEC
  0
SECTION
  2
OBJECTS
  0
DICTIONARY
  5
A
330
0
100
AcDbDictionary
281
1
  3
ACAD_COLOR
350
B
  3
ACAD_GROUP
350
C
  3
ACAD_LAYOUT
350
D
  3
ACAD_MATERIAL
350
E
  3
ACAD_MLEADERSTYLE
350
F
  3
ACAD_MLINESTYLE
350
10
  3
ACAD_PLOTSETTINGS
350
11
  3
ACAD_PLOTSTYLENAME
350
12
  3
ACAD_SCALELIST
350
14
  3
ACAD_TABLESTYLE
350
15
  3
ACAD_VISUALSTYLE
350
16
  3
EZDXF_META
350
2D
  0
DICTIONARY
  5
B
330
A
100
AcDbDictionary
281
1
  0
DICTIONARY
  5
C
330
A
100
AcDbDictionary
281
1
  0
DICTIONARY
  5
D
330
A
100
AcDbDictionary
281
1
  3
Model
350
1A
  3
Layout1
350
1E
  0
DICTIONARY
  5
E
330
A
100
AcDbDictionary
281
1
  3
ByBlock
350
1F
  3
ByLayer
350
20
  3
Global
350
21
  0
DICTIONARY
  5
F
330
A
100
AcDbDictionary
281
1
  3
Standard
350
2C
  0
DICTIONARY
  5
10
330
A
100
AcDbDictionary
281
1
  3
Standard
350
22
  0
DICTIONARY
  5
11
330
A
100
AcDbDictionary
281
1
  0
ACDBDICTIONARYWDFLT
  5
12
330
A
100
AcDbDictionary
281
1
  3
Normal
350
13
100
AcDbDictionaryWithDefault
340
13
  0
ACDBPLACEHOLDER
  5
13
330
12
  0
DICTIONARY
  5
14
330
A
100
AcDbDictionary
281
1
  0
DICTIONARY
  5
15
330
A
100
AcDbDictionary
281
1
  0
DICTIONARY
  5
16
330
A
100
AcDbDictionary
281
1
  0
LAYOUT
  5
1A
330
D
100
AcDbPlotSettings
  1

  2
Adobe PDF
  4
A3
  6

 40
7.5
 41
20.0
 42
7.5
 43
20.0
 44
420.0
 45
297.0
 46
0.0
 47
0.0
 48
0.0
 49
0.0
140
0.0
141
0.0
142
1.0
143
1.0
 70
1024
 72
1
 73
1
 74
5
  7

 75
16
 76
0
 77
2
 78
300
147
1.0
148
0.0
149
0.0
100
AcDbLayout
  1
Model
 70
1
 71
0
 10
0.0
 20
0.0
 11
420.0
 21
297.0
 12
0.0
 22
0.0
 32
0.0
 14
1e+20
 24
1e+20
 34
1e+20
 15
-1e+20
 25
-1e+20
 35
-1e+20
146
0.0
 13
0.0
 23
0.0
 33
0.0
 16
1.0
 26
0.0
 36
0.0
 17
0.0
 27
1.0
 37
0.0
 76
1
330
17
  0
LAYOUT
  5
1E
330
D
100
AcDbPlotSettings
  1

  2
Adobe PDF
  4
A3
  6

 40
7.5
 41
20.0
 42
7.5
 43
20.0
 44
420.0
 45
297.0
 46
0.0
 47
0.0
 48
0.0
 49
0.0
140
0.0
141
0.0
142
1.0
143
1.0
 70
0
 72
1
 73
1
 74
5
  7

 75
16
 76
0
 77
2
 78
300
147
1.0
148
0.0
149
0.0
100
AcDbLayout
  1
Layout1
 70
1
 71
1
 10
0.0
 20
0.0
 11
420.0
 21
297.0
 12
0.0
 22
0.0
 32
0.0
 14
1e+20
 24
1e+20
 34
1e+20
 15
-1e+20
 25
-1e+20
 35
-1e+20
146
0.0
 13
0.0
 23
0.0
 33
0.0
 16
1.0
 26
0.0
 36
0.0
 17
0.0
 27
1.0
 37
0.0
 76
1
330
1B
  0
MATERIAL
  5
1F
102
{ACAD_REACTORS
330
E
102
}
330
E
100
AcDbMaterial
  1
ByBlock
  2

 70
0
 40
1.0
 71
1
 41
1.0
 91
-1023410177
 42
1.0
 72
1
  3

 73
1
 74
1
 75
1
 44
0.5
 73
0
 45
1.0
 46
1.0
 77
1
  4

 78
1
 79
1
170
1
 48
1.0
171
1
  6

172
1
173
1
174
1
140
1.0
141
1.0
175
1
  7

176
1
177
1
178
1
143
1.0
179
1
  8

270
1
271
1
272
1
145
1.0
146
1.0
273
1
  9

274
1
275
1
276
1
 42
1.0
 72
1
  3

 73
1
 74
1
 75
1
 94
63
  0
MATERIAL
  5
20
102
{ACAD_REACTORS
330
E
102
}
330
E
100
AcDbMaterial
  1
ByLayer
  2

 70
0
 40
1.0
 71
1
 41
1.0
 91
-1023410177
 42
1.0
 72
1
  3

 73
1
 74
1
 75
1
 44
0.5
 73
0
 45
1.0
 46
1.0
 77
1
  4

 78
1
 79
1
170
1
 48
1.0
171
1
  6

172
1
173
1
174
1
140
1.0
141
1.0
175
1
  7

176
1
177
1
178
1
143
1.0
179
1
  8

270
1
271
1
272
1
145
1.0
146
1.0
273
1
  9

274
1
275
1
276
1
 42
1.0
 72
1
  3

 73
1
 74
1
 75
1
 94
63
  0
MATERIAL
  5
21
102
{ACAD_REACTORS
330
E
102
}
330
E
100
AcDbMaterial
  1
Global
  2

 70
0
 40
1.0
 71
1
 41
1.0
 91
-1023410177
 42
1.0
 72
1
  3

 73
1
 74
1
 75
1
 44
0.5
 73
0
 45
1.0
 46
1.0
 77
1
  4

 78
1
 79
1
170
1
 48
1.0
171
1
  6

172
1
173
1
174
1
140
1.0
141
1.0
175
1
  7

176
1
177
1
178
1
143
1.0
179
1
  8

270
1
271
1
272
1
145
1.0
146
1.0
273
1
  9

274
1
275
1
276
1
 42
1.0
 72
1
  3

 73
1
 74
1
 75
1
 94
63
  0
MLINESTYLE
  5
22
102
{ACAD_REACTORS
330
10
102
}
330
10
100
AcDbMlineStyle
  2
Standard
 70
0
  3

 62
256
 51
90.0
 52
90.0
 71
2
 49
0.5
 62
256
  6
BYLAYER
 49
-0.5
 62
256
  6
BYLAYER
  0
MLEADERSTYLE
  5
2C
102
{ACAD_REACTORS
330
F
102
}
330
F
100
AcDbMLeaderStyle
179
2
170
2
171
1
172
0
 90
2
 40
0.0
 41
0.0
173
1
 91
-1056964608
 92
-2
290
1
 42
2.0
291
1
 43
8.0
  3
Standard
 44
4.0
300

342
29
174
1
175
1
176
0
178
1
 93
-1056964608
 45
4.0
292
0
297
0
 46
4.0
 94
-1056964608
 47
1.0
 49
1.0
140
1.0
294
1
141
0.0
177
0
142
1.0
295
0
296
0
143
3.75
271
0
272
9
273
9
  0
DICTIONARY
  5
2D
330
A
100
AcDbDictionary
280
1
281
1
  3
CREATED_BY_EZDXF
350
2E
  3
WRITTEN_BY_EZDXF
350
130
  0
DICTIONARYVAR
  5
2E
330
2D
100
DictionaryVariables
280
0
  1
0.18 @ 2022-08-26T11:23:15.311010+00:00
  0
DICTIONARYVAR
  5
130
330
2D
100
DictionaryVariables
280
0
  1
0.18 @ 2022-08-26T11:23:15.333809+00:00
  0
ENDSEC
  0
EOF
